<?xml version="1.0" encoding="UTF-8" standalone="no"?>
<svg width="534.106mm" height="63.5mm"
 xmlns="http://www.w3.org/2000/svg" xmlns:xlink="http://www.w3.org/1999/xlink"  version="1.2" baseProfile="tiny">
<title>Qt SVG Document</title>
<desc>Generated with Qt</desc>
<defs>
</defs>
<g fill="none" stroke="black" stroke-width="1" fill-rule="evenodd" stroke-linecap="square" stroke-linejoin="bevel" >

<g fill="none" stroke="#000000" stroke-opacity="1" stroke-width="1" stroke-linecap="square" stroke-linejoin="bevel" transform="matrix(1,0,0,1,0,0)"
font-family="Sans Serif" font-size="9" font-weight="400" font-style="normal" 
>
</g>

<g fill="none" stroke="#000000" stroke-opacity="1" stroke-width="1" stroke-linecap="square" stroke-linejoin="bevel" transform="matrix(1,0,0,1,0,0)"
font-family="Sans Serif" font-size="9" font-weight="400" font-style="normal" 
>
</g>

<g fill="none" stroke="#000000" stroke-opacity="1" stroke-width="1" stroke-linecap="square" stroke-linejoin="bevel" transform="matrix(2,0,0,2,0.0012,180)"
font-family="Sans Serif" font-size="9" font-weight="400" font-style="normal" 
>
</g>

<g fill="#ffffff" fill-opacity="1" stroke="none" transform="matrix(2,0,0,2,0.0012,180)"
font-family="Sans Serif" font-size="9" font-weight="400" font-style="normal" 
>
<rect x="-0.0006" y="-90" width="756.861" height="90"/>
</g>

<g fill="none" stroke="#000000" stroke-opacity="1" stroke-width="1" stroke-linecap="square" stroke-linejoin="bevel" transform="matrix(2,0,0,2,0.0012,180)"
font-family="Sans Serif" font-size="9" font-weight="400" font-style="normal" 
>
</g>

<g fill="none" stroke="#000000" stroke-opacity="1" stroke-width="1" stroke-linecap="square" stroke-linejoin="bevel" transform="matrix(2,0,0,2,0.0012,180)"
font-family="Sans Serif" font-size="9" font-weight="400" font-style="normal" 
>
</g>

<g fill="none" stroke="#000000" stroke-opacity="1" stroke-width="1" stroke-linecap="square" stroke-linejoin="bevel" transform="matrix(2,0,0,2,0.0012,180)"
font-family="Sans Serif" font-size="9" font-weight="400" font-style="normal" 
>
</g>

<g fill="none" stroke="#000000" stroke-opacity="1" stroke-width="1" stroke-linecap="square" stroke-linejoin="bevel" transform="matrix(2,0,0,2,0.0012,180)"
font-family="Sans Serif" font-size="9" font-weight="400" font-style="normal" 
>
</g>

<g fill="none" stroke="#000000" stroke-opacity="1" stroke-width="1" stroke-linecap="square" stroke-linejoin="round" transform="matrix(2,0,0,2,0.0012,180)"
font-family="Sans Serif" font-size="9" font-weight="400" font-style="normal" 
>
<ellipse cx="311.03" cy="-48" rx="70.3444" ry="17.5"/>
</g>

<g fill="none" stroke="#000000" stroke-opacity="1" stroke-width="1" stroke-linecap="square" stroke-linejoin="bevel" transform="matrix(2,0,0,2,0.0012,180)"
font-family="Sans Serif" font-size="9" font-weight="400" font-style="normal" 
>
</g>

<g fill="none" stroke="#000000" stroke-opacity="1" stroke-width="1" stroke-linecap="square" stroke-linejoin="bevel" transform="matrix(2,0,0,2,528.671,71)"
font-family="Sans Serif" font-size="9" font-weight="400" font-style="normal" 
>
</g>

<g fill="none" stroke="#000000" stroke-opacity="1" stroke-width="1" stroke-linecap="square" stroke-linejoin="bevel" transform="matrix(2,0,0,2,528.671,71)"
font-family="sans" font-size="11" font-weight="100" font-style="normal" 
>
</g>

<g fill="#000000" fill-opacity="1" stroke="#000000" stroke-opacity="1" stroke-width="1" stroke-linecap="square" stroke-linejoin="round" transform="matrix(2,0,0,2,528.671,71)"
font-family="sans" font-size="11" font-weight="100" font-style="normal" 
>
<path vector-effect="none" fill-rule="nonzero" d="M2.96875,1.98438 L3.53125,1.98438 L0.734375,11.0156 L0.171875,11.0156 L2.96875,1.98438 M8.35938,4.15625 L8.35938,4.70312 C8.00521,4.50521 7.78646,4.39583 7.70312,4.375 C7.45312,4.32292 7.14062,4.29167 6.76562,4.28125 C6.20312,4.28125 5.76042,4.39062 5.4375,4.60938 C5.1875,4.79688 5.0625,5.11458 5.0625,5.5625 C5.0625,5.875 5.18229,6.11458 5.42188,6.28125 C5.66146,6.46875 6.01042,6.61458 6.46875,6.71875 L6.8125,6.78125 C7.38542,6.90625 7.81771,7.08333 8.10938,7.3125 C8.45312,7.58333 8.63021,7.92708 8.64062,8.34375 C8.64062,8.90625 8.47396,9.34896 8.14062,9.67188 C7.78646,9.99479 7.20833,10.1562 6.40625,10.1562 C5.96875,10.1562 5.63542,10.125 5.40625,10.0625 C5.125,9.98958 4.83333,9.89583 4.53125,9.78125 L4.53125,9.15625 C4.96875,9.40625 5.25,9.55208 5.375,9.59375 C5.72917,9.6875 6.08333,9.73438 6.4375,9.73438 C7.01042,9.73438 7.4375,9.61458 7.71875,9.375 C8,9.125 8.14062,8.80729 8.14062,8.42188 C8.14062,8.08854 8.04688,7.84896 7.85938,7.70312 C7.58854,7.48438 7.16146,7.30729 6.57812,7.17188 L6.23438,7.09375 C5.72396,6.96875 5.33854,6.80208 5.07812,6.59375 C4.74479,6.32292 4.57812,5.99479 4.57812,5.60938 C4.57812,4.98438 4.77865,4.53385 5.17969,4.25781 C5.58073,3.98177 6.07292,3.84375 6.65625,3.84375 C7.15625,3.84375 7.5,3.86979 7.6875,3.92188 C7.91667,3.98438 8.14062,4.0625 8.35938,4.15625 M10.6562,3.98438 L11.1562,3.98438 L11.1562,10 L10.6562,10 L10.6562,3.98438 M10.6562,1.64062 L11.1562,1.64062 L11.1562,2.3125 L10.6562,2.3125 L10.6562,1.64062 M18.0469,5.29688 C18.2344,4.80729 18.526,4.44271 18.9219,4.20312 C19.3073,3.96354 19.7604,3.84375 20.2812,3.84375 C20.8021,3.84375 21.2188,4.02604 21.5312,4.39062 C21.8542,4.75521 22.0156,5.41667 22.0156,6.375 L22.0156,10 L21.5312,10 L21.5312,6.40625 C21.5312,5.57292 21.4167,5.01042 21.1875,4.71875 C20.9583,4.42708 20.651,4.28125 20.2656,4.28125 C19.7135,4.28125 19.2292,4.44792 18.8125,4.78125 C18.3438,5.15625 18.1094,5.76042 18.1094,6.59375 L18.1094,10 L17.625,10 L17.625,6.40625 C17.625,5.60417 17.513,5.04948 17.2891,4.74219 C17.0651,4.4349 16.7552,4.28125 16.3594,4.28125 C15.8073,4.28125 15.3229,4.45312 14.9062,4.79688 C14.4375,5.16146 14.2031,5.76042 14.2031,6.59375 L14.2031,10 L13.7188,10 L13.7188,3.98438 L14.2031,3.98438 L14.2031,5.10938 C14.3802,4.71354 14.6562,4.40104 15.0312,4.17188 C15.3958,3.95312 15.849,3.84375 16.3906,3.84375 C16.7448,3.84375 17.0833,3.95833 17.4062,4.1875 C17.6562,4.375 17.8698,4.74479 18.0469,5.29688 M24.3594,7.60938 L24.3594,3.98438 L24.8438,3.98438 L24.8438,7.57812 C24.8438,8.35938 24.9688,8.90885 25.2188,9.22656 C25.4688,9.54427 25.8385,9.70312 26.3281,9.70312 C26.901,9.70312 27.3906,9.53125 27.7969,9.1875 C28.2031,8.84375 28.4062,8.24479 28.4062,7.39062 L28.4062,3.98438 L28.8906,3.98438 L28.8906,10 L28.4062,10 L28.4062,8.875 C28.2292,9.23958 27.9948,9.51562 27.7031,9.70312 C27.2865,9.99479 26.8229,10.1406 26.3125,10.1406 C25.7188,10.1406 25.2448,9.9375 24.8906,9.53125 C24.5365,9.13542 24.3594,8.49479 24.3594,7.60938 M31.3906,1.64062 L31.875,1.64062 L31.875,10 L31.3906,10 L31.3906,1.64062 M36.8438,6.60938 C36.0417,6.60938 35.4661,6.75 35.1172,7.03125 C34.7682,7.3125 34.5938,7.72396 34.5938,8.26562 C34.5938,8.79688 34.7396,9.17448 35.0312,9.39844 C35.3229,9.6224 35.6667,9.73438 36.0625,9.73438 C36.8125,9.73438 37.3542,9.41667 37.6875,8.78125 C38.0208,8.13542 38.1875,7.53125 38.1875,6.96875 L38.1875,6.60938 L36.8438,6.60938 M38.6875,6.5625 L38.6875,10 L38.1875,10 L38.1875,8.35938 C37.9167,9.16146 37.5521,9.67188 37.0938,9.89062 C36.7396,10.0677 36.3802,10.1562 36.0156,10.1562 C35.4219,10.1562 34.9531,9.99479 34.6094,9.67188 C34.2656,9.34896 34.0938,8.8776 34.0938,8.25781 C34.0938,7.63802 34.3177,7.14062 34.7656,6.76562 C35.2135,6.39062 35.9427,6.20312 36.9531,6.20312 L38.1875,6.20312 L38.1875,6.10938 C38.1875,5.57812 38.0312,5.14062 37.7188,4.79688 C37.4271,4.45312 36.9323,4.28125 36.2344,4.28125 C35.8906,4.28125 35.5417,4.34375 35.1875,4.46875 C34.9583,4.55208 34.6562,4.71875 34.2812,4.96875 L34.2812,4.4375 C34.6042,4.23958 34.9062,4.09896 35.1875,4.01562 C35.5833,3.90104 35.9635,3.84375 36.3281,3.84375 C37.0469,3.84375 37.6354,4.05729 38.0938,4.48438 C38.4896,4.84896 38.6875,5.54167 38.6875,6.5625 M41.6875,2.28125 L41.6875,3.98438 L43.7188,3.98438 L43.7188,4.40625 L41.6875,4.40625 L41.6875,8.01562 C41.6875,8.47396 41.7448,8.79688 41.8594,8.98438 C42.1094,9.38021 42.4688,9.57812 42.9375,9.57812 L43.7188,9.57812 L43.7188,10 L42.9531,10 C42.4635,10 42.0469,9.85677 41.7031,9.57031 C41.3594,9.28385 41.1875,8.76562 41.1875,8.01562 L41.1875,4.40625 L40.4688,4.40625 L40.4688,3.98438 L41.1875,3.98438 L41.1875,2.28125 L41.6875,2.28125 M50.1719,6.75 L50.1719,7.0625 L45.6094,7.0625 C45.6094,8.02083 45.7969,8.69792 46.1719,9.09375 C46.5885,9.52083 47.2031,9.73438 48.0156,9.73438 C48.2344,9.73438 48.5208,9.6875 48.875,9.59375 C49.2292,9.5 49.5833,9.35938 49.9375,9.17188 L49.9375,9.6875 C49.5833,9.84375 49.2214,9.96094 48.8516,10.0391 C48.4818,10.1172 48.1875,10.1562 47.9688,10.1562 C47.0417,10.1562 46.3438,9.90625 45.875,9.40625 C45.3646,8.875 45.1094,8.09375 45.1094,7.0625 C45.1094,5.98958 45.3385,5.1875 45.7969,4.65625 C46.276,4.11458 46.9427,3.84375 47.7969,3.84375 C48.5781,3.84375 49.1719,4.10417 49.5781,4.625 C49.974,5.16667 50.1719,5.875 50.1719,6.75 M49.6719,6.64062 C49.6719,5.79688 49.4792,5.18229 49.0938,4.79688 C48.7812,4.45312 48.349,4.28125 47.7969,4.28125 C47.2031,4.28125 46.7031,4.45833 46.2969,4.8125 C45.9219,5.14583 45.6979,5.75521 45.625,6.64062 L49.6719,6.64062 M56.25,5.35938 L56.25,1.64062 L56.7188,1.64062 L56.7188,10 L56.25,10 L56.25,8.64062 C56.0208,9.16146 55.7708,9.51562 55.5,9.70312 C55.1042,10.0052 54.724,10.1562 54.3594,10.1562 C53.651,10.1562 53.0599,9.86719 52.5859,9.28906 C52.112,8.71094 51.875,7.94792 51.875,7 C51.875,6.05208 52.112,5.28906 52.5859,4.71094 C53.0599,4.13281 53.651,3.84375 54.3594,3.84375 C54.724,3.84375 55.1042,3.98958 55.5,4.28125 C55.7708,4.47917 56.0208,4.83854 56.25,5.35938 M53.0156,4.90625 C52.599,5.32292 52.3906,6.02083 52.3906,7 C52.3906,7.97917 52.599,8.67708 53.0156,9.09375 C53.4323,9.51042 53.8698,9.71875 54.3281,9.71875 C54.776,9.71875 55.2083,9.51042 55.625,9.09375 C56.0312,8.67708 56.2344,7.97917 56.2344,7 C56.2344,6.02083 56.0312,5.32292 55.625,4.90625 C55.2083,4.48958 54.776,4.28125 54.3281,4.28125 C53.8698,4.28125 53.4323,4.48958 53.0156,4.90625 M63.5781,12.1719 L63.5781,12.5938 L57.8594,12.5938 L57.8594,12.1719 L63.5781,12.1719 M65.2344,2.28125 L65.2344,3.98438 L67.2656,3.98438 L67.2656,4.40625 L65.2344,4.40625 L65.2344,8.01562 C65.2344,8.47396 65.2917,8.79688 65.4062,8.98438 C65.6562,9.38021 66.0156,9.57812 66.4844,9.57812 L67.2656,9.57812 L67.2656,10 L66.5,10 C66.0104,10 65.5938,9.85677 65.25,9.57031 C64.9062,9.28385 64.7344,8.76562 64.7344,8.01562 L64.7344,4.40625 L64.0156,4.40625 L64.0156,3.98438 L64.7344,3.98438 L64.7344,2.28125 L65.2344,2.28125 M68.9688,7.60938 L68.9688,3.98438 L69.4531,3.98438 L69.4531,7.57812 C69.4531,8.35938 69.5781,8.90885 69.8281,9.22656 C70.0781,9.54427 70.4479,9.70312 70.9375,9.70312 C71.5104,9.70312 72,9.53125 72.4062,9.1875 C72.8125,8.84375 73.0156,8.24479 73.0156,7.39062 L73.0156,3.98438 L73.5,3.98438 L73.5,10 L73.0156,10 L73.0156,8.875 C72.8385,9.23958 72.6042,9.51562 72.3125,9.70312 C71.8958,9.99479 71.4323,10.1406 70.9219,10.1406 C70.3281,10.1406 69.8542,9.9375 69.5,9.53125 C69.1458,9.13542 68.9688,8.49479 68.9688,7.60938 M79.2656,4.40625 C79.1823,4.36458 79.0729,4.33333 78.9375,4.3125 C78.8125,4.29167 78.6615,4.28125 78.4844,4.28125 C77.8698,4.28125 77.3646,4.50521 76.9688,4.95312 C76.6458,5.31771 76.4844,5.94271 76.4844,6.82812 L76.4844,10 L76,10 L76,3.98438 L76.4844,3.98438 L76.4844,5.10938 C76.651,4.78646 76.8802,4.51562 77.1719,4.29688 C77.5677,3.99479 78.0365,3.84375 78.5781,3.84375 C78.724,3.84375 78.849,3.84896 78.9531,3.85938 C79.0573,3.85938 79.1615,3.86979 79.2656,3.89062 L79.2656,4.40625 M81.0312,2.28125 L81.0312,3.98438 L83.0625,3.98438 L83.0625,4.40625 L81.0312,4.40625 L81.0312,8.01562 C81.0312,8.47396 81.0885,8.79688 81.2031,8.98438 C81.4531,9.38021 81.8125,9.57812 82.2812,9.57812 L83.0625,9.57812 L83.0625,10 L82.2969,10 C81.8073,10 81.3906,9.85677 81.0469,9.57031 C80.7031,9.28385 80.5312,8.76562 80.5312,8.01562 L80.5312,4.40625 L79.8125,4.40625 L79.8125,3.98438 L80.5312,3.98438 L80.5312,2.28125 L81.0312,2.28125 M84.8281,1.64062 L85.3125,1.64062 L85.3125,10 L84.8281,10 L84.8281,1.64062 M92.5625,6.75 L92.5625,7.0625 L88,7.0625 C88,8.02083 88.1875,8.69792 88.5625,9.09375 C88.9792,9.52083 89.5938,9.73438 90.4062,9.73438 C90.625,9.73438 90.9115,9.6875 91.2656,9.59375 C91.6198,9.5 91.974,9.35938 92.3281,9.17188 L92.3281,9.6875 C91.974,9.84375 91.612,9.96094 91.2422,10.0391 C90.8724,10.1172 90.5781,10.1562 90.3594,10.1562 C89.4323,10.1562 88.7344,9.90625 88.2656,9.40625 C87.7552,8.875 87.5,8.09375 87.5,7.0625 C87.5,5.98958 87.7292,5.1875 88.1875,4.65625 C88.6667,4.11458 89.3333,3.84375 90.1875,3.84375 C90.9688,3.84375 91.5625,4.10417 91.9688,4.625 C92.3646,5.16667 92.5625,5.875 92.5625,6.75 M92.0625,6.64062 C92.0625,5.79688 91.8698,5.18229 91.4844,4.79688 C91.1719,4.45312 90.7396,4.28125 90.1875,4.28125 C89.5938,4.28125 89.0938,4.45833 88.6875,4.8125 C88.3125,5.14583 88.0885,5.75521 88.0156,6.64062 L92.0625,6.64062"/>
</g>

<g fill="none" stroke="#000000" stroke-opacity="1" stroke-width="1" stroke-linecap="square" stroke-linejoin="bevel" transform="matrix(2,0,0,2,528.671,71)"
font-family="sans" font-size="11" font-weight="100" font-style="normal" 
>
</g>

<g fill="none" stroke="#000000" stroke-opacity="1" stroke-width="1" stroke-linecap="square" stroke-linejoin="bevel" transform="matrix(2,0,0,2,528.671,71)"
font-family="Sans Serif" font-size="9" font-weight="400" font-style="normal" 
>
</g>

<g fill="none" stroke="#000000" stroke-opacity="1" stroke-width="1" stroke-linecap="square" stroke-linejoin="bevel" transform="matrix(2,0,0,2,0.0012,180)"
font-family="Sans Serif" font-size="9" font-weight="400" font-style="normal" 
>
</g>

<g fill="none" stroke="#000000" stroke-opacity="1" stroke-width="1" stroke-linecap="square" stroke-linejoin="bevel" transform="matrix(2,0,0,2,0.0012,180)"
font-family="Sans Serif" font-size="9" font-weight="400" font-style="normal" 
>
</g>

<g fill="none" stroke="#000000" stroke-opacity="1" stroke-width="1" stroke-linecap="square" stroke-linejoin="bevel" transform="matrix(2,0,0,2,0.0012,180)"
font-family="Sans Serif" font-size="9" font-weight="400" font-style="normal" 
>
</g>

<g fill="none" stroke="#000000" stroke-opacity="1" stroke-width="1" stroke-linecap="square" stroke-linejoin="round" transform="matrix(2,0,0,2,0.0012,180)"
font-family="Sans Serif" font-size="9" font-weight="400" font-style="normal" 
>
<ellipse cx="633.37" cy="-18" rx="122.991" ry="17.5"/>
</g>

<g fill="none" stroke="#000000" stroke-opacity="1" stroke-width="1" stroke-linecap="square" stroke-linejoin="bevel" transform="matrix(2,0,0,2,0.0012,180)"
font-family="Sans Serif" font-size="9" font-weight="400" font-style="normal" 
>
</g>

<g fill="none" stroke="#000000" stroke-opacity="1" stroke-width="1" stroke-linecap="square" stroke-linejoin="bevel" transform="matrix(2,0,0,2,1089.3,131)"
font-family="Sans Serif" font-size="9" font-weight="400" font-style="normal" 
>
</g>

<g fill="none" stroke="#000000" stroke-opacity="1" stroke-width="1" stroke-linecap="square" stroke-linejoin="bevel" transform="matrix(2,0,0,2,1089.3,131)"
font-family="sans" font-size="11" font-weight="100" font-style="normal" 
>
</g>

<g fill="#000000" fill-opacity="1" stroke="#000000" stroke-opacity="1" stroke-width="1" stroke-linecap="square" stroke-linejoin="round" transform="matrix(2,0,0,2,1089.3,131)"
font-family="sans" font-size="11" font-weight="100" font-style="normal" 
>
<path vector-effect="none" fill-rule="nonzero" d="M2.96875,1.98438 L3.53125,1.98438 L0.734375,11.0156 L0.171875,11.0156 L2.96875,1.98438 M8.21875,4.40625 C8.13542,4.36458 8.02604,4.33333 7.89062,4.3125 C7.76562,4.29167 7.61458,4.28125 7.4375,4.28125 C6.82292,4.28125 6.31771,4.50521 5.92188,4.95312 C5.59896,5.31771 5.4375,5.94271 5.4375,6.82812 L5.4375,10 L4.95312,10 L4.95312,3.98438 L5.4375,3.98438 L5.4375,5.10938 C5.60417,4.78646 5.83333,4.51562 6.125,4.29688 C6.52083,3.99479 6.98958,3.84375 7.53125,3.84375 C7.67708,3.84375 7.80208,3.84896 7.90625,3.85938 C8.01042,3.85938 8.11458,3.86979 8.21875,3.89062 L8.21875,4.40625 M14.1562,6.75 L14.1562,7.0625 L9.59375,7.0625 C9.59375,8.02083 9.78125,8.69792 10.1562,9.09375 C10.5729,9.52083 11.1875,9.73438 12,9.73438 C12.2188,9.73438 12.5052,9.6875 12.8594,9.59375 C13.2135,9.5 13.5677,9.35938 13.9219,9.17188 L13.9219,9.6875 C13.5677,9.84375 13.2057,9.96094 12.8359,10.0391 C12.4661,10.1172 12.1719,10.1562 11.9531,10.1562 C11.026,10.1562 10.3281,9.90625 9.85938,9.40625 C9.34896,8.875 9.09375,8.09375 9.09375,7.0625 C9.09375,5.98958 9.32292,5.1875 9.78125,4.65625 C10.2604,4.11458 10.9271,3.84375 11.7812,3.84375 C12.5625,3.84375 13.1562,4.10417 13.5625,4.625 C13.9583,5.16667 14.1562,5.875 14.1562,6.75 M13.6562,6.64062 C13.6562,5.79688 13.4635,5.18229 13.0781,4.79688 C12.7656,4.45312 12.3333,4.28125 11.7812,4.28125 C11.1875,4.28125 10.6875,4.45833 10.2812,4.8125 C9.90625,5.14583 9.68229,5.75521 9.60938,6.64062 L13.6562,6.64062 M20.3438,4.28125 L20.3438,4.79688 C20.0521,4.61979 19.8073,4.5 19.6094,4.4375 C19.276,4.33333 18.9583,4.28125 18.6562,4.28125 C17.7917,4.28125 17.1719,4.5026 16.7969,4.94531 C16.4219,5.38802 16.2344,6.07292 16.2344,7 C16.2344,7.9375 16.4219,8.6276 16.7969,9.07031 C17.1719,9.51302 17.7917,9.73438 18.6562,9.73438 C18.9479,9.73438 19.2292,9.69271 19.5,9.60938 C19.7917,9.53646 20.0729,9.42188 20.3438,9.26562 L20.3438,9.76562 C20.0729,9.90104 19.7917,10 19.5,10.0625 C19.1979,10.125 18.901,10.1562 18.6094,10.1562 C17.7344,10.1562 17.0365,9.91667 16.5156,9.4375 C15.9948,8.95833 15.7344,8.14323 15.7344,6.99219 C15.7344,5.84115 15.9948,5.02604 16.5156,4.54688 C17.0365,4.07812 17.7344,3.84375 18.6094,3.84375 C18.901,3.84375 19.2083,3.88542 19.5312,3.96875 C19.8542,4.04167 20.125,4.14583 20.3438,4.28125 M25.8594,5.01562 C25.5052,4.52604 25.0208,4.28125 24.4062,4.28125 C23.7917,4.28125 23.3073,4.52604 22.9531,5.01562 C22.599,5.49479 22.4219,6.15104 22.4219,6.98438 C22.4219,7.83854 22.599,8.51042 22.9531,9 C23.3073,9.48958 23.7917,9.73438 24.4062,9.73438 C25.0208,9.73438 25.5052,9.48958 25.8594,9 C26.2135,8.5 26.3906,7.82812 26.3906,6.98438 C26.3906,6.16146 26.2135,5.50521 25.8594,5.01562 M24.4062,3.84375 C25.1667,3.84375 25.7708,4.13021 26.2188,4.70312 C26.6667,5.27604 26.8906,6.03646 26.8906,6.98438 C26.8906,7.97396 26.6667,8.75521 26.2188,9.32812 C25.7708,9.90104 25.1667,10.1875 24.4062,10.1875 C23.625,10.1875 23.0104,9.90104 22.5625,9.32812 C22.125,8.75521 21.9062,7.97396 21.9062,6.98438 C21.9062,6.02604 22.1302,5.26302 22.5781,4.69531 C23.026,4.1276 23.6354,3.84375 24.4062,3.84375 M32.2656,4.40625 C32.1823,4.36458 32.0729,4.33333 31.9375,4.3125 C31.8125,4.29167 31.6615,4.28125 31.4844,4.28125 C30.8698,4.28125 30.3646,4.50521 29.9688,4.95312 C29.6458,5.31771 29.4844,5.94271 29.4844,6.82812 L29.4844,10 L29,10 L29,3.98438 L29.4844,3.98438 L29.4844,5.10938 C29.651,4.78646 29.8802,4.51562 30.1719,4.29688 C30.5677,3.99479 31.0365,3.84375 31.5781,3.84375 C31.724,3.84375 31.849,3.84896 31.9531,3.85938 C32.0573,3.85938 32.1615,3.86979 32.2656,3.89062 L32.2656,4.40625 M37.5156,5.35938 L37.5156,1.64062 L37.9844,1.64062 L37.9844,10 L37.5156,10 L37.5156,8.64062 C37.2865,9.16146 37.0365,9.51562 36.7656,9.70312 C36.3698,10.0052 35.9896,10.1562 35.625,10.1562 C34.9167,10.1562 34.3255,9.86719 33.8516,9.28906 C33.3776,8.71094 33.1406,7.94792 33.1406,7 C33.1406,6.05208 33.3776,5.28906 33.8516,4.71094 C34.3255,4.13281 34.9167,3.84375 35.625,3.84375 C35.9896,3.84375 36.3698,3.98958 36.7656,4.28125 C37.0365,4.47917 37.2865,4.83854 37.5156,5.35938 M34.2812,4.90625 C33.8646,5.32292 33.6562,6.02083 33.6562,7 C33.6562,7.97917 33.8646,8.67708 34.2812,9.09375 C34.6979,9.51042 35.1354,9.71875 35.5938,9.71875 C36.0417,9.71875 36.474,9.51042 36.8906,9.09375 C37.2969,8.67708 37.5,7.97917 37.5,7 C37.5,6.02083 37.2969,5.32292 36.8906,4.90625 C36.474,4.48958 36.0417,4.28125 35.5938,4.28125 C35.1354,4.28125 34.6979,4.48958 34.2812,4.90625 M44.8438,12.1719 L44.8438,12.5938 L39.125,12.5938 L39.125,12.1719 L44.8438,12.1719 M46.375,9.5625 L48.1406,9.5625 L48.1406,2.46875 L45.9375,3.35938 L45.9375,2.85938 L48.125,1.98438 L48.6719,1.98438 L48.6719,9.5625 L50.4531,9.5625 L50.4531,10 L46.375,10 L46.375,9.5625 M53.125,1.98438 L56.9219,1.98438 L56.9219,2.42188 L53.6562,2.42188 L53.6562,5.10938 C53.8229,5.04688 53.9844,5 54.1406,4.96875 C54.2969,4.9375 54.526,4.92188 54.8281,4.92188 C55.651,4.92188 56.3021,5.15104 56.7812,5.60938 C57.2604,6.05729 57.5,6.66146 57.5,7.42188 C57.5,8.28646 57.25,8.95833 56.75,9.4375 C56.2604,9.91667 55.5677,10.1562 54.6719,10.1562 C54.3802,10.1562 54.0781,10.1302 53.7656,10.0781 C53.4531,10.026 53.1302,9.95312 52.7969,9.85938 L52.7969,9.3125 C53.0781,9.4375 53.3698,9.53646 53.6719,9.60938 C53.974,9.67188 54.2917,9.70312 54.625,9.70312 C55.3333,9.70312 55.901,9.5 56.3281,9.09375 C56.7552,8.6875 56.9688,8.13021 56.9688,7.42188 C56.9688,6.78646 56.7604,6.28646 56.3438,5.92188 C55.9271,5.54688 55.3646,5.35938 54.6562,5.35938 C54.5104,5.35938 54.2917,5.40104 54,5.48438 C53.7188,5.55729 53.4271,5.67708 53.125,5.84375 L53.125,1.98438 M60.0312,9.5625 L64.5938,9.5625 L64.5938,10 L59.4688,10 L59.4688,9.4375 L61.4688,7.35938 C61.9583,6.85938 62.4062,6.39583 62.8125,5.96875 C63.1771,5.57292 63.4219,5.26562 63.5469,5.04688 C63.6719,4.82812 63.7344,4.53646 63.7344,4.17188 C63.7344,3.55729 63.5469,3.0625 63.1719,2.6875 C62.901,2.41667 62.4583,2.28125 61.8438,2.28125 C61.4792,2.28125 61.0677,2.38542 60.6094,2.59375 C60.401,2.6875 60.0521,2.89062 59.5625,3.20312 L59.5625,2.64062 C59.7708,2.49479 60.0729,2.32812 60.4688,2.14062 C60.9271,1.94271 61.3802,1.83854 61.8281,1.82812 C62.5156,1.82812 63.0938,2.01042 63.5625,2.375 C64.0208,2.72917 64.25,3.3125 64.25,4.125 C64.25,4.45833 64.1875,4.77083 64.0625,5.0625 C63.9167,5.40625 63.6927,5.75521 63.3906,6.10938 C63.2969,6.21354 63.0104,6.51042 62.5312,7 L60.0312,9.5625 M70.1094,2.28125 L66.7812,7.4375 L70.1094,7.4375 L70.1094,2.28125 M69.6875,1.98438 L70.6562,1.98438 L70.6562,7.4375 L71.8125,7.4375 L71.8125,7.875 L70.6562,7.875 L70.6562,10 L70.1094,10 L70.1094,7.875 L66.2188,7.875 L66.2188,7.3125 L69.6875,1.98438 M76.1406,2.28125 C75.4844,2.28125 74.9948,2.59896 74.6719,3.23438 C74.3594,3.86979 74.2031,4.78906 74.2031,5.99219 C74.2031,7.19531 74.3594,8.11979 74.6719,8.76562 C74.9948,9.40104 75.4844,9.71875 76.1406,9.71875 C76.8177,9.71875 77.3125,9.40104 77.625,8.76562 C77.9479,8.11979 78.1094,7.19531 78.1094,5.99219 C78.1094,4.78906 77.9479,3.86979 77.625,3.23438 C77.3125,2.59896 76.8177,2.28125 76.1406,2.28125 M76.1406,1.82812 C76.9115,1.82812 77.5208,2.14583 77.9688,2.78125 C78.4271,3.41667 78.6562,4.48958 78.6562,6 C78.6562,7.51042 78.4271,8.58333 77.9688,9.21875 C77.5208,9.84375 76.9115,10.1562 76.1406,10.1562 C75.3906,10.1562 74.7865,9.84375 74.3281,9.21875 C73.8802,8.58333 73.6562,7.51042 73.6562,6 C73.6562,4.48958 73.8802,3.41667 74.3281,2.78125 C74.7865,2.14583 75.3906,1.82812 76.1406,1.82812 M83.1562,6 C82.5521,6 82.0781,6.16667 81.7344,6.5 C81.401,6.83333 81.2344,7.28906 81.2344,7.86719 C81.2344,8.44531 81.401,8.90104 81.7344,9.23438 C82.0781,9.56771 82.5495,9.73438 83.1484,9.73438 C83.7474,9.73438 84.2188,9.56771 84.5625,9.23438 C84.9167,8.90104 85.0938,8.44792 85.0938,7.875 C85.0938,7.29167 84.9219,6.83333 84.5781,6.5 C84.2344,6.16667 83.7604,6 83.1562,6 M82.0625,5.73438 C81.7188,5.59896 81.4375,5.38021 81.2188,5.07812 C80.9792,4.76562 80.8594,4.38021 80.8594,3.92188 C80.8594,3.27604 81.0651,2.76562 81.4766,2.39062 C81.888,2.01562 82.4479,1.82812 83.1562,1.82812 C83.8646,1.82812 84.4219,2.01562 84.8281,2.39062 C85.2344,2.76562 85.4375,3.27604 85.4375,3.92188 C85.4375,4.39062 85.3229,4.77604 85.0938,5.07812 C84.8542,5.39062 84.5729,5.60938 84.25,5.73438 C84.6458,5.85938 84.9688,6.09375 85.2188,6.4375 C85.4792,6.79167 85.6094,7.22917 85.6094,7.75 C85.6094,8.52083 85.401,9.11458 84.9844,9.53125 C84.5573,9.94792 83.9479,10.1562 83.1562,10.1562 C82.3646,10.1562 81.7552,9.94792 81.3281,9.53125 C80.901,9.11458 80.6875,8.52083 80.6875,7.75 C80.6875,7.22917 80.8177,6.79167 81.0781,6.4375 C81.3698,6.08333 81.6979,5.84896 82.0625,5.73438 M81.8672,2.71094 C81.5599,2.9974 81.4062,3.40104 81.4062,3.92188 C81.4062,4.44271 81.5599,4.84896 81.8672,5.14062 C82.1745,5.43229 82.6042,5.57812 83.1562,5.57812 C83.6979,5.57812 84.125,5.43229 84.4375,5.14062 C84.75,4.84896 84.9062,4.44271 84.9062,3.92188 C84.9062,3.40104 84.75,3 84.4375,2.71875 C84.125,2.42708 83.6979,2.28125 83.1562,2.28125 C82.6042,2.28125 82.1745,2.42448 81.8672,2.71094 M88.125,9.82812 L88.125,9.26562 C88.375,9.41146 88.625,9.52604 88.875,9.60938 C89.125,9.68229 89.375,9.71875 89.625,9.71875 C90.6875,9.71875 91.4323,9.19792 91.8594,8.15625 C92.0573,7.67708 92.1458,6.86979 92.125,5.73438 C91.9479,6.13021 91.7188,6.4375 91.4375,6.65625 C91.0729,6.94792 90.6146,7.09375 90.0625,7.09375 C89.3854,7.09375 88.8229,6.85417 88.375,6.375 C87.9271,5.90625 87.7031,5.30208 87.7031,4.5625 C87.7031,3.73958 87.9219,3.07812 88.3594,2.57812 C88.8073,2.07812 89.3802,1.82812 90.0781,1.82812 C90.9219,1.82812 91.5677,2.1875 92.0156,2.90625 C92.4635,3.61458 92.6875,4.64583 92.6875,6 C92.6875,7.4375 92.4115,8.48958 91.8594,9.15625 C91.3177,9.82292 90.5833,10.1562 89.6562,10.1562 C89.4062,10.1562 89.1562,10.1302 88.9062,10.0781 C88.6562,10.026 88.3958,9.94271 88.125,9.82812 M88.7656,6.05469 C89.099,6.44531 89.5495,6.64062 90.1172,6.64062 C90.6849,6.64062 91.1354,6.44531 91.4688,6.05469 C91.8021,5.66406 91.9688,5.13021 91.9688,4.45312 C91.9688,3.77604 91.8021,3.24219 91.4688,2.85156 C91.1354,2.46094 90.6849,2.26562 90.1172,2.26562 C89.5495,2.26562 89.099,2.46094 88.7656,2.85156 C88.4323,3.24219 88.2656,3.77604 88.2656,4.45312 C88.2656,5.13021 88.4323,5.66406 88.7656,6.05469 M97.125,6 C96.5208,6 96.0469,6.16667 95.7031,6.5 C95.3698,6.83333 95.2031,7.28906 95.2031,7.86719 C95.2031,8.44531 95.3698,8.90104 95.7031,9.23438 C96.0469,9.56771 96.5182,9.73438 97.1172,9.73438 C97.7161,9.73438 98.1875,9.56771 98.5312,9.23438 C98.8854,8.90104 99.0625,8.44792 99.0625,7.875 C99.0625,7.29167 98.8906,6.83333 98.5469,6.5 C98.2031,6.16667 97.7292,6 97.125,6 M96.0312,5.73438 C95.6875,5.59896 95.4062,5.38021 95.1875,5.07812 C94.9479,4.76562 94.8281,4.38021 94.8281,3.92188 C94.8281,3.27604 95.0339,2.76562 95.4453,2.39062 C95.8568,2.01562 96.4167,1.82812 97.125,1.82812 C97.8333,1.82812 98.3906,2.01562 98.7969,2.39062 C99.2031,2.76562 99.4062,3.27604 99.4062,3.92188 C99.4062,4.39062 99.2917,4.77604 99.0625,5.07812 C98.8229,5.39062 98.5417,5.60938 98.2188,5.73438 C98.6146,5.85938 98.9375,6.09375 99.1875,6.4375 C99.4479,6.79167 99.5781,7.22917 99.5781,7.75 C99.5781,8.52083 99.3698,9.11458 98.9531,9.53125 C98.526,9.94792 97.9167,10.1562 97.125,10.1562 C96.3333,10.1562 95.724,9.94792 95.2969,9.53125 C94.8698,9.11458 94.6562,8.52083 94.6562,7.75 C94.6562,7.22917 94.7865,6.79167 95.0469,6.4375 C95.3385,6.08333 95.6667,5.84896 96.0312,5.73438 M95.8359,2.71094 C95.5286,2.9974 95.375,3.40104 95.375,3.92188 C95.375,4.44271 95.5286,4.84896 95.8359,5.14062 C96.1432,5.43229 96.5729,5.57812 97.125,5.57812 C97.6667,5.57812 98.0938,5.43229 98.4062,5.14062 C98.7188,4.84896 98.875,4.44271 98.875,3.92188 C98.875,3.40104 98.7188,3 98.4062,2.71875 C98.0938,2.42708 97.6667,2.28125 97.125,2.28125 C96.5729,2.28125 96.1432,2.42448 95.8359,2.71094 M101.938,9.5625 L106.5,9.5625 L106.5,10 L101.375,10 L101.375,9.4375 L103.375,7.35938 C103.865,6.85938 104.312,6.39583 104.719,5.96875 C105.083,5.57292 105.328,5.26562 105.453,5.04688 C105.578,4.82812 105.641,4.53646 105.641,4.17188 C105.641,3.55729 105.453,3.0625 105.078,2.6875 C104.807,2.41667 104.365,2.28125 103.75,2.28125 C103.385,2.28125 102.974,2.38542 102.516,2.59375 C102.307,2.6875 101.958,2.89062 101.469,3.20312 L101.469,2.64062 C101.677,2.49479 101.979,2.32812 102.375,2.14062 C102.833,1.94271 103.286,1.83854 103.734,1.82812 C104.422,1.82812 105,2.01042 105.469,2.375 C105.927,2.72917 106.156,3.3125 106.156,4.125 C106.156,4.45833 106.094,4.77083 105.969,5.0625 C105.823,5.40625 105.599,5.75521 105.297,6.10938 C105.203,6.21354 104.917,6.51042 104.438,7 L101.938,9.5625 M108.5,1.98438 L113.375,1.98438 L113.375,2.4375 L110.469,10 L109.891,10 L112.812,2.42188 L108.5,2.42188 L108.5,1.98438 M118.047,2.28125 C117.391,2.28125 116.901,2.59896 116.578,3.23438 C116.266,3.86979 116.109,4.78906 116.109,5.99219 C116.109,7.19531 116.266,8.11979 116.578,8.76562 C116.901,9.40104 117.391,9.71875 118.047,9.71875 C118.724,9.71875 119.219,9.40104 119.531,8.76562 C119.854,8.11979 120.016,7.19531 120.016,5.99219 C120.016,4.78906 119.854,3.86979 119.531,3.23438 C119.219,2.59896 118.724,2.28125 118.047,2.28125 M118.047,1.82812 C118.818,1.82812 119.427,2.14583 119.875,2.78125 C120.333,3.41667 120.562,4.48958 120.562,6 C120.562,7.51042 120.333,8.58333 119.875,9.21875 C119.427,9.84375 118.818,10.1562 118.047,10.1562 C117.297,10.1562 116.693,9.84375 116.234,9.21875 C115.786,8.58333 115.562,7.51042 115.562,6 C115.562,4.48958 115.786,3.41667 116.234,2.78125 C116.693,2.14583 117.297,1.82812 118.047,1.82812 M126.031,5.67188 C126.458,5.77604 126.797,6.01042 127.047,6.375 C127.286,6.71875 127.406,7.15104 127.406,7.67188 C127.406,8.46354 127.18,9.07552 126.727,9.50781 C126.273,9.9401 125.547,10.1562 124.547,10.1562 C124.203,10.1562 123.854,10.1042 123.5,10 C123.146,9.89583 122.781,9.72917 122.406,9.5 L122.406,8.92188 C122.708,9.18229 123.036,9.38021 123.391,9.51562 C123.745,9.65104 124.109,9.71875 124.484,9.71875 C125.255,9.71875 125.844,9.54167 126.25,9.1875 C126.656,8.84375 126.859,8.33854 126.859,7.67188 C126.859,7.13021 126.672,6.70312 126.297,6.39062 C125.922,6.08854 125.396,5.9375 124.719,5.9375 L123.781,5.9375 L123.781,5.48438 L124.766,5.48438 C125.38,5.48438 125.854,5.35938 126.188,5.10938 C126.51,4.85938 126.672,4.5 126.672,4.03125 C126.672,3.46875 126.505,3.03646 126.172,2.73438 C125.828,2.43229 125.344,2.28125 124.719,2.28125 C124.427,2.28125 124.109,2.33333 123.766,2.4375 C123.422,2.54167 123.047,2.70312 122.641,2.92188 L122.641,2.375 C123.057,2.19792 123.443,2.06771 123.797,1.98438 C124.161,1.89062 124.5,1.83854 124.812,1.82812 C125.635,1.82812 126.245,2.01562 126.641,2.39062 C127.026,2.76562 127.219,3.27604 127.219,3.92188 C127.219,4.33854 127.115,4.70833 126.906,5.03125 C126.708,5.34375 126.417,5.55729 126.031,5.67188 M129.875,9.5625 L134.438,9.5625 L134.438,10 L129.312,10 L129.312,9.4375 L131.312,7.35938 C131.802,6.85938 132.25,6.39583 132.656,5.96875 C133.021,5.57292 133.266,5.26562 133.391,5.04688 C133.516,4.82812 133.578,4.53646 133.578,4.17188 C133.578,3.55729 133.391,3.0625 133.016,2.6875 C132.745,2.41667 132.302,2.28125 131.688,2.28125 C131.323,2.28125 130.911,2.38542 130.453,2.59375 C130.245,2.6875 129.896,2.89062 129.406,3.20312 L129.406,2.64062 C129.615,2.49479 129.917,2.32812 130.312,2.14062 C130.771,1.94271 131.224,1.83854 131.672,1.82812 C132.359,1.82812 132.938,2.01042 133.406,2.375 C133.865,2.72917 134.094,3.3125 134.094,4.125 C134.094,4.45833 134.031,4.77083 133.906,5.0625 C133.76,5.40625 133.536,5.75521 133.234,6.10938 C133.141,6.21354 132.854,6.51042 132.375,7 L129.875,9.5625 M137.016,9.82812 L137.016,9.26562 C137.266,9.41146 137.516,9.52604 137.766,9.60938 C138.016,9.68229 138.266,9.71875 138.516,9.71875 C139.578,9.71875 140.323,9.19792 140.75,8.15625 C140.948,7.67708 141.036,6.86979 141.016,5.73438 C140.839,6.13021 140.609,6.4375 140.328,6.65625 C139.964,6.94792 139.505,7.09375 138.953,7.09375 C138.276,7.09375 137.714,6.85417 137.266,6.375 C136.818,5.90625 136.594,5.30208 136.594,4.5625 C136.594,3.73958 136.812,3.07812 137.25,2.57812 C137.698,2.07812 138.271,1.82812 138.969,1.82812 C139.812,1.82812 140.458,2.1875 140.906,2.90625 C141.354,3.61458 141.578,4.64583 141.578,6 C141.578,7.4375 141.302,8.48958 140.75,9.15625 C140.208,9.82292 139.474,10.1562 138.547,10.1562 C138.297,10.1562 138.047,10.1302 137.797,10.0781 C137.547,10.026 137.286,9.94271 137.016,9.82812 M137.656,6.05469 C137.99,6.44531 138.44,6.64062 139.008,6.64062 C139.576,6.64062 140.026,6.44531 140.359,6.05469 C140.693,5.66406 140.859,5.13021 140.859,4.45312 C140.859,3.77604 140.693,3.24219 140.359,2.85156 C140.026,2.46094 139.576,2.26562 139.008,2.26562 C138.44,2.26562 137.99,2.46094 137.656,2.85156 C137.323,3.24219 137.156,3.77604 137.156,4.45312 C137.156,5.13021 137.323,5.66406 137.656,6.05469 M145.984,2.28125 C145.328,2.28125 144.839,2.59896 144.516,3.23438 C144.203,3.86979 144.047,4.78906 144.047,5.99219 C144.047,7.19531 144.203,8.11979 144.516,8.76562 C144.839,9.40104 145.328,9.71875 145.984,9.71875 C146.661,9.71875 147.156,9.40104 147.469,8.76562 C147.792,8.11979 147.953,7.19531 147.953,5.99219 C147.953,4.78906 147.792,3.86979 147.469,3.23438 C147.156,2.59896 146.661,2.28125 145.984,2.28125 M145.984,1.82812 C146.755,1.82812 147.365,2.14583 147.812,2.78125 C148.271,3.41667 148.5,4.48958 148.5,6 C148.5,7.51042 148.271,8.58333 147.812,9.21875 C147.365,9.84375 146.755,10.1562 145.984,10.1562 C145.234,10.1562 144.63,9.84375 144.172,9.21875 C143.724,8.58333 143.5,7.51042 143.5,6 C143.5,4.48958 143.724,3.41667 144.172,2.78125 C144.63,2.14583 145.234,1.82812 145.984,1.82812 M150.406,1.98438 L155.281,1.98438 L155.281,2.4375 L152.375,10 L151.797,10 L154.719,2.42188 L150.406,2.42188 L150.406,1.98438 M159.984,6 C159.38,6 158.906,6.16667 158.562,6.5 C158.229,6.83333 158.062,7.28906 158.062,7.86719 C158.062,8.44531 158.229,8.90104 158.562,9.23438 C158.906,9.56771 159.378,9.73438 159.977,9.73438 C160.576,9.73438 161.047,9.56771 161.391,9.23438 C161.745,8.90104 161.922,8.44792 161.922,7.875 C161.922,7.29167 161.75,6.83333 161.406,6.5 C161.062,6.16667 160.589,6 159.984,6 M158.891,5.73438 C158.547,5.59896 158.266,5.38021 158.047,5.07812 C157.807,4.76562 157.688,4.38021 157.688,3.92188 C157.688,3.27604 157.893,2.76562 158.305,2.39062 C158.716,2.01562 159.276,1.82812 159.984,1.82812 C160.693,1.82812 161.25,2.01562 161.656,2.39062 C162.062,2.76562 162.266,3.27604 162.266,3.92188 C162.266,4.39062 162.151,4.77604 161.922,5.07812 C161.682,5.39062 161.401,5.60938 161.078,5.73438 C161.474,5.85938 161.797,6.09375 162.047,6.4375 C162.307,6.79167 162.438,7.22917 162.438,7.75 C162.438,8.52083 162.229,9.11458 161.812,9.53125 C161.385,9.94792 160.776,10.1562 159.984,10.1562 C159.193,10.1562 158.583,9.94792 158.156,9.53125 C157.729,9.11458 157.516,8.52083 157.516,7.75 C157.516,7.22917 157.646,6.79167 157.906,6.4375 C158.198,6.08333 158.526,5.84896 158.891,5.73438 M158.695,2.71094 C158.388,2.9974 158.234,3.40104 158.234,3.92188 C158.234,4.44271 158.388,4.84896 158.695,5.14062 C159.003,5.43229 159.432,5.57812 159.984,5.57812 C160.526,5.57812 160.953,5.43229 161.266,5.14062 C161.578,4.84896 161.734,4.44271 161.734,3.92188 C161.734,3.40104 161.578,3 161.266,2.71875 C160.953,2.42708 160.526,2.28125 159.984,2.28125 C159.432,2.28125 159.003,2.42448 158.695,2.71094 M164.875,1.98438 L168.672,1.98438 L168.672,2.42188 L165.406,2.42188 L165.406,5.10938 C165.573,5.04688 165.734,5 165.891,4.96875 C166.047,4.9375 166.276,4.92188 166.578,4.92188 C167.401,4.92188 168.052,5.15104 168.531,5.60938 C169.01,6.05729 169.25,6.66146 169.25,7.42188 C169.25,8.28646 169,8.95833 168.5,9.4375 C168.01,9.91667 167.318,10.1562 166.422,10.1562 C166.13,10.1562 165.828,10.1302 165.516,10.0781 C165.203,10.026 164.88,9.95312 164.547,9.85938 L164.547,9.3125 C164.828,9.4375 165.12,9.53646 165.422,9.60938 C165.724,9.67188 166.042,9.70312 166.375,9.70312 C167.083,9.70312 167.651,9.5 168.078,9.09375 C168.505,8.6875 168.719,8.13021 168.719,7.42188 C168.719,6.78646 168.51,6.28646 168.094,5.92188 C167.677,5.54688 167.115,5.35938 166.406,5.35938 C166.26,5.35938 166.042,5.40104 165.75,5.48438 C165.469,5.55729 165.177,5.67708 164.875,5.84375 L164.875,1.98438 M172.094,9.5625 L173.859,9.5625 L173.859,2.46875 L171.656,3.35938 L171.656,2.85938 L173.844,1.98438 L174.391,1.98438 L174.391,9.5625 L176.172,9.5625 L176.172,10 L172.094,10 L172.094,9.5625"/>
</g>

<g fill="none" stroke="#000000" stroke-opacity="1" stroke-width="1" stroke-linecap="square" stroke-linejoin="bevel" transform="matrix(2,0,0,2,1089.3,131)"
font-family="sans" font-size="11" font-weight="100" font-style="normal" 
>
</g>

<g fill="none" stroke="#000000" stroke-opacity="1" stroke-width="1" stroke-linecap="square" stroke-linejoin="bevel" transform="matrix(2,0,0,2,1089.3,131)"
font-family="Sans Serif" font-size="9" font-weight="400" font-style="normal" 
>
</g>

<g fill="none" stroke="#000000" stroke-opacity="1" stroke-width="1" stroke-linecap="square" stroke-linejoin="bevel" transform="matrix(2,0,0,2,0.0012,180)"
font-family="Sans Serif" font-size="9" font-weight="400" font-style="normal" 
>
</g>

<g fill="none" stroke="#000000" stroke-opacity="1" stroke-width="1" stroke-linecap="square" stroke-linejoin="bevel" transform="matrix(2,0,0,2,0.0012,180)"
font-family="Sans Serif" font-size="9" font-weight="400" font-style="normal" 
>
</g>

<g fill="none" stroke="#000000" stroke-opacity="1" stroke-width="1" stroke-linecap="square" stroke-linejoin="bevel" transform="matrix(2,0,0,2,0.0012,180)"
font-family="Sans Serif" font-size="9" font-weight="400" font-style="normal" 
>
</g>

<g fill="none" stroke="#000000" stroke-opacity="1" stroke-width="1" stroke-linecap="square" stroke-linejoin="round" transform="matrix(2,0,0,2,0.0012,180)"
font-family="Sans Serif" font-size="9" font-weight="400" font-style="normal" 
>
<ellipse cx="61.095" cy="-72" rx="48.8956" ry="17.5"/>
</g>

<g fill="none" stroke="#000000" stroke-opacity="1" stroke-width="1" stroke-linecap="square" stroke-linejoin="bevel" transform="matrix(2,0,0,2,0.0012,180)"
font-family="Sans Serif" font-size="9" font-weight="400" font-style="normal" 
>
</g>

<g fill="none" stroke="#000000" stroke-opacity="1" stroke-width="1" stroke-linecap="square" stroke-linejoin="bevel" transform="matrix(2,0,0,2,64.0037,23)"
font-family="Sans Serif" font-size="9" font-weight="400" font-style="normal" 
>
</g>

<g fill="none" stroke="#000000" stroke-opacity="1" stroke-width="1" stroke-linecap="square" stroke-linejoin="bevel" transform="matrix(2,0,0,2,64.0037,23)"
font-family="sans" font-size="11" font-weight="100" font-style="normal" 
>
</g>

<g fill="#000000" fill-opacity="1" stroke="#000000" stroke-opacity="1" stroke-width="1" stroke-linecap="square" stroke-linejoin="round" transform="matrix(2,0,0,2,64.0037,23)"
font-family="sans" font-size="11" font-weight="100" font-style="normal" 
>
<path vector-effect="none" fill-rule="nonzero" d="M2.96875,1.98438 L3.53125,1.98438 L0.734375,11.0156 L0.171875,11.0156 L2.96875,1.98438 M9.28125,5.29688 C9.46875,4.80729 9.76042,4.44271 10.1562,4.20312 C10.5417,3.96354 10.9948,3.84375 11.5156,3.84375 C12.0365,3.84375 12.4531,4.02604 12.7656,4.39062 C13.0885,4.75521 13.25,5.41667 13.25,6.375 L13.25,10 L12.7656,10 L12.7656,6.40625 C12.7656,5.57292 12.651,5.01042 12.4219,4.71875 C12.1927,4.42708 11.8854,4.28125 11.5,4.28125 C10.9479,4.28125 10.4635,4.44792 10.0469,4.78125 C9.57812,5.15625 9.34375,5.76042 9.34375,6.59375 L9.34375,10 L8.85938,10 L8.85938,6.40625 C8.85938,5.60417 8.7474,5.04948 8.52344,4.74219 C8.29948,4.4349 7.98958,4.28125 7.59375,4.28125 C7.04167,4.28125 6.55729,4.45312 6.14062,4.79688 C5.67188,5.16146 5.4375,5.76042 5.4375,6.59375 L5.4375,10 L4.95312,10 L4.95312,3.98438 L5.4375,3.98438 L5.4375,5.10938 C5.61458,4.71354 5.89062,4.40104 6.26562,4.17188 C6.63021,3.95312 7.08333,3.84375 7.625,3.84375 C7.97917,3.84375 8.31771,3.95833 8.64062,4.1875 C8.89062,4.375 9.10417,4.74479 9.28125,5.29688 M17.6875,10.5625 C17.4688,11.0938 17.2344,11.4635 16.9844,11.6719 C16.651,11.9427 16.3281,12.0781 16.0156,12.0781 L15.2812,12.0781 L15.2812,11.6562 L15.9062,11.6562 C16.1667,11.6562 16.3958,11.5729 16.5938,11.4062 C16.8438,11.1875 17.0521,10.8698 17.2188,10.4531 L17.3906,10 L15,3.98438 L15.5312,3.98438 L17.6562,9.34375 L19.7969,3.98438 L20.3281,3.98438 L17.6875,10.5625 M26.5156,12.1719 L26.5156,12.5938 L20.7969,12.5938 L20.7969,12.1719 L26.5156,12.1719 M31.6562,6.92188 C31.6562,6.08854 31.487,5.44271 31.1484,4.98438 C30.8099,4.52604 30.3333,4.29688 29.7188,4.29688 C29.1146,4.29688 28.6432,4.52604 28.3047,4.98438 C27.9661,5.44271 27.7969,6.08854 27.7969,6.92188 C27.7969,7.75521 27.9661,8.40104 28.3047,8.85938 C28.6432,9.31771 29.1146,9.54688 29.7188,9.54688 C30.3333,9.54688 30.8099,9.31771 31.1484,8.85938 C31.487,8.40104 31.6562,7.75521 31.6562,6.92188 M32.1406,9.25 C32.1406,10.5 31.9036,11.3177 31.4297,11.7031 C30.9557,12.0885 30.3542,12.2812 29.625,12.2812 C29.2708,12.2812 28.9427,12.2604 28.6406,12.2188 C28.3281,12.1562 28.026,12.0729 27.7344,11.9688 L27.7344,11.4062 C28.026,11.5625 28.3125,11.6797 28.5938,11.7578 C28.875,11.8359 29.1667,11.875 29.4688,11.875 C30.0625,11.875 30.5755,11.7474 31.0078,11.4922 C31.4401,11.237 31.6562,10.5521 31.6562,9.4375 L31.6562,8.48438 C31.5,8.90104 31.2969,9.22917 31.0469,9.46875 C30.651,9.82292 30.2083,10 29.7188,10 C28.9583,10 28.3646,9.73177 27.9375,9.19531 C27.5104,8.65885 27.2969,7.90104 27.2969,6.92188 C27.2969,5.94271 27.5104,5.1849 27.9375,4.64844 C28.3646,4.11198 28.9583,3.84375 29.7188,3.84375 C30.2083,3.84375 30.625,3.99479 30.9688,4.29688 C31.2396,4.53646 31.4688,4.85938 31.6562,5.26562 L31.6562,3.98438 L32.1406,3.98438 L32.1406,9.25 M37.5156,4.40625 C37.4323,4.36458 37.3229,4.33333 37.1875,4.3125 C37.0625,4.29167 36.9115,4.28125 36.7344,4.28125 C36.1198,4.28125 35.6146,4.50521 35.2188,4.95312 C34.8958,5.31771 34.7344,5.94271 34.7344,6.82812 L34.7344,10 L34.25,10 L34.25,3.98438 L34.7344,3.98438 L34.7344,5.10938 C34.901,4.78646 35.1302,4.51562 35.4219,4.29688 C35.8177,3.99479 36.2865,3.84375 36.8281,3.84375 C36.974,3.84375 37.099,3.84896 37.2031,3.85938 C37.3073,3.85938 37.4115,3.86979 37.5156,3.89062 L37.5156,4.40625 M41.1719,6.60938 C40.3698,6.60938 39.7943,6.75 39.4453,7.03125 C39.0964,7.3125 38.9219,7.72396 38.9219,8.26562 C38.9219,8.79688 39.0677,9.17448 39.3594,9.39844 C39.651,9.6224 39.9948,9.73438 40.3906,9.73438 C41.1406,9.73438 41.6823,9.41667 42.0156,8.78125 C42.349,8.13542 42.5156,7.53125 42.5156,6.96875 L42.5156,6.60938 L41.1719,6.60938 M43.0156,6.5625 L43.0156,10 L42.5156,10 L42.5156,8.35938 C42.2448,9.16146 41.8802,9.67188 41.4219,9.89062 C41.0677,10.0677 40.7083,10.1562 40.3438,10.1562 C39.75,10.1562 39.2812,9.99479 38.9375,9.67188 C38.5938,9.34896 38.4219,8.8776 38.4219,8.25781 C38.4219,7.63802 38.6458,7.14062 39.0938,6.76562 C39.5417,6.39062 40.2708,6.20312 41.2812,6.20312 L42.5156,6.20312 L42.5156,6.10938 C42.5156,5.57812 42.3594,5.14062 42.0469,4.79688 C41.7552,4.45312 41.2604,4.28125 40.5625,4.28125 C40.2188,4.28125 39.8698,4.34375 39.5156,4.46875 C39.2865,4.55208 38.9844,4.71875 38.6094,4.96875 L38.6094,4.4375 C38.9323,4.23958 39.2344,4.09896 39.5156,4.01562 C39.9115,3.90104 40.2917,3.84375 40.6562,3.84375 C41.375,3.84375 41.9635,4.05729 42.4219,4.48438 C42.8177,4.84896 43.0156,5.54167 43.0156,6.5625 M45.9844,8.64062 L45.9844,12.2812 L45.5,12.2812 L45.5,3.98438 L45.9844,3.98438 L45.9844,5.35938 C46.2135,4.83854 46.4583,4.47917 46.7188,4.28125 C47.125,3.98958 47.5104,3.84375 47.875,3.84375 C48.5833,3.84375 49.1745,4.13281 49.6484,4.71094 C50.1224,5.28906 50.3594,6.05208 50.3594,7 C50.3594,7.94792 50.1224,8.71094 49.6484,9.28906 C49.1745,9.86719 48.5833,10.1562 47.875,10.1562 C47.5104,10.1562 47.125,10.0052 46.7188,9.70312 C46.4583,9.51562 46.2135,9.16146 45.9844,8.64062 M49.2188,9.09375 C49.6354,8.67708 49.8438,7.97917 49.8438,7 C49.8438,6.02083 49.6354,5.32292 49.2188,4.90625 C48.8021,4.48958 48.3646,4.28125 47.9062,4.28125 C47.4583,4.28125 47.026,4.48958 46.6094,4.90625 C46.2031,5.32292 46,6.02083 46,7 C46,7.97917 46.2031,8.67708 46.6094,9.09375 C47.026,9.51042 47.4583,9.71875 47.9062,9.71875 C48.3646,9.71875 48.8021,9.51042 49.2188,9.09375 M57.0156,6.375 L57.0156,10 L56.5156,10 L56.5156,6.40625 C56.5156,5.625 56.3854,5.07552 56.125,4.75781 C55.8646,4.4401 55.4688,4.28125 54.9375,4.28125 C54.3229,4.28125 53.8385,4.45833 53.4844,4.8125 C53.1302,5.16667 52.9531,5.76042 52.9531,6.59375 L52.9531,10 L52.4688,10 L52.4688,1.64062 L52.9531,1.64062 L52.9531,5.09375 C53.0677,4.79167 53.276,4.52083 53.5781,4.28125 C53.9219,3.98958 54.4115,3.84375 55.0469,3.84375 C55.651,3.84375 56.1302,4.05729 56.4844,4.48438 C56.8385,4.91146 57.0156,5.54167 57.0156,6.375 "/>
</g>

<g fill="none" stroke="#000000" stroke-opacity="1" stroke-width="1" stroke-linecap="square" stroke-linejoin="bevel" transform="matrix(2,0,0,2,64.0037,23)"
font-family="sans" font-size="11" font-weight="100" font-style="normal" 
>
</g>

<g fill="none" stroke="#000000" stroke-opacity="1" stroke-width="1" stroke-linecap="square" stroke-linejoin="bevel" transform="matrix(2,0,0,2,64.0037,23)"
font-family="Sans Serif" font-size="9" font-weight="400" font-style="normal" 
>
</g>

<g fill="none" stroke="#000000" stroke-opacity="1" stroke-width="1" stroke-linecap="square" stroke-linejoin="bevel" transform="matrix(2,0,0,2,0.0012,180)"
font-family="Sans Serif" font-size="9" font-weight="400" font-style="normal" 
>
</g>

<g fill="none" stroke="#000000" stroke-opacity="1" stroke-width="1" stroke-linecap="square" stroke-linejoin="bevel" transform="matrix(2,0,0,2,0.0012,180)"
font-family="Sans Serif" font-size="9" font-weight="400" font-style="normal" 
>
</g>

<g fill="none" stroke="#000000" stroke-opacity="1" stroke-width="1" stroke-linecap="square" stroke-linejoin="bevel" transform="matrix(2,0,0,2,0.0012,180)"
font-family="Sans Serif" font-size="9" font-weight="400" font-style="normal" 
>
</g>

<g fill="none" stroke="#000000" stroke-opacity="1" stroke-width="1" stroke-linecap="square" stroke-linejoin="round" transform="matrix(2,0,0,2,0.0012,180)"
font-family="Sans Serif" font-size="9" font-weight="400" font-style="normal" 
>
<ellipse cx="61.095" cy="-18" rx="60.5956" ry="17.5"/>
</g>

<g fill="none" stroke="#000000" stroke-opacity="1" stroke-width="1" stroke-linecap="square" stroke-linejoin="bevel" transform="matrix(2,0,0,2,0.0012,180)"
font-family="Sans Serif" font-size="9" font-weight="400" font-style="normal" 
>
</g>

<g fill="none" stroke="#000000" stroke-opacity="1" stroke-width="1" stroke-linecap="square" stroke-linejoin="bevel" transform="matrix(2,0,0,2,44.7381,131)"
font-family="Sans Serif" font-size="9" font-weight="400" font-style="normal" 
>
</g>

<g fill="none" stroke="#000000" stroke-opacity="1" stroke-width="1" stroke-linecap="square" stroke-linejoin="bevel" transform="matrix(2,0,0,2,44.7381,131)"
font-family="sans" font-size="11" font-weight="100" font-style="normal" 
>
</g>

<g fill="#000000" fill-opacity="1" stroke="#000000" stroke-opacity="1" stroke-width="1" stroke-linecap="square" stroke-linejoin="round" transform="matrix(2,0,0,2,44.7381,131)"
font-family="sans" font-size="11" font-weight="100" font-style="normal" 
>
<path vector-effect="none" fill-rule="nonzero" d="M2.96875,1.98438 L3.53125,1.98438 L0.734375,11.0156 L0.171875,11.0156 L2.96875,1.98438 M5.46875,2.28125 L5.46875,3.98438 L7.5,3.98438 L7.5,4.40625 L5.46875,4.40625 L5.46875,8.01562 C5.46875,8.47396 5.52604,8.79688 5.64062,8.98438 C5.89062,9.38021 6.25,9.57812 6.71875,9.57812 L7.5,9.57812 L7.5,10 L6.73438,10 C6.24479,10 5.82812,9.85677 5.48438,9.57031 C5.14062,9.28385 4.96875,8.76562 4.96875,8.01562 L4.96875,4.40625 L4.25,4.40625 L4.25,3.98438 L4.96875,3.98438 L4.96875,2.28125 L5.46875,2.28125 M9.20312,7.60938 L9.20312,3.98438 L9.6875,3.98438 L9.6875,7.57812 C9.6875,8.35938 9.8125,8.90885 10.0625,9.22656 C10.3125,9.54427 10.6823,9.70312 11.1719,9.70312 C11.7448,9.70312 12.2344,9.53125 12.6406,9.1875 C13.0469,8.84375 13.25,8.24479 13.25,7.39062 L13.25,3.98438 L13.7344,3.98438 L13.7344,10 L13.25,10 L13.25,8.875 C13.0729,9.23958 12.8385,9.51562 12.5469,9.70312 C12.1302,9.99479 11.6667,10.1406 11.1562,10.1406 C10.5625,10.1406 10.0885,9.9375 9.73438,9.53125 C9.38021,9.13542 9.20312,8.49479 9.20312,7.60938 M19.5,4.40625 C19.4167,4.36458 19.3073,4.33333 19.1719,4.3125 C19.0469,4.29167 18.8958,4.28125 18.7188,4.28125 C18.1042,4.28125 17.599,4.50521 17.2031,4.95312 C16.8802,5.31771 16.7188,5.94271 16.7188,6.82812 L16.7188,10 L16.2344,10 L16.2344,3.98438 L16.7188,3.98438 L16.7188,5.10938 C16.8854,4.78646 17.1146,4.51562 17.4062,4.29688 C17.8021,3.99479 18.2708,3.84375 18.8125,3.84375 C18.9583,3.84375 19.0833,3.84896 19.1875,3.85938 C19.2917,3.85938 19.3958,3.86979 19.5,3.89062 L19.5,4.40625 M21.2656,2.28125 L21.2656,3.98438 L23.2969,3.98438 L23.2969,4.40625 L21.2656,4.40625 L21.2656,8.01562 C21.2656,8.47396 21.3229,8.79688 21.4375,8.98438 C21.6875,9.38021 22.0469,9.57812 22.5156,9.57812 L23.2969,9.57812 L23.2969,10 L22.5312,10 C22.0417,10 21.625,9.85677 21.2812,9.57031 C20.9375,9.28385 20.7656,8.76562 20.7656,8.01562 L20.7656,4.40625 L20.0469,4.40625 L20.0469,3.98438 L20.7656,3.98438 L20.7656,2.28125 L21.2656,2.28125 M25.0625,1.64062 L25.5469,1.64062 L25.5469,10 L25.0625,10 L25.0625,1.64062 M32.7969,6.75 L32.7969,7.0625 L28.2344,7.0625 C28.2344,8.02083 28.4219,8.69792 28.7969,9.09375 C29.2135,9.52083 29.8281,9.73438 30.6406,9.73438 C30.8594,9.73438 31.1458,9.6875 31.5,9.59375 C31.8542,9.5 32.2083,9.35938 32.5625,9.17188 L32.5625,9.6875 C32.2083,9.84375 31.8464,9.96094 31.4766,10.0391 C31.1068,10.1172 30.8125,10.1562 30.5938,10.1562 C29.6667,10.1562 28.9688,9.90625 28.5,9.40625 C27.9896,8.875 27.7344,8.09375 27.7344,7.0625 C27.7344,5.98958 27.9635,5.1875 28.4219,4.65625 C28.901,4.11458 29.5677,3.84375 30.4219,3.84375 C31.2031,3.84375 31.7969,4.10417 32.2031,4.625 C32.599,5.16667 32.7969,5.875 32.7969,6.75 M32.2969,6.64062 C32.2969,5.79688 32.1042,5.18229 31.7188,4.79688 C31.4062,4.45312 30.974,4.28125 30.4219,4.28125 C29.8281,4.28125 29.3281,4.45833 28.9219,4.8125 C28.5469,5.14583 28.3229,5.75521 28.25,6.64062 L32.2969,6.64062 M39.2344,12.1719 L39.2344,12.5938 L33.5156,12.5938 L33.5156,12.1719 L39.2344,12.1719 M44.4844,4.28125 L44.4844,4.79688 C44.1927,4.61979 43.9479,4.5 43.75,4.4375 C43.4167,4.33333 43.099,4.28125 42.7969,4.28125 C41.9323,4.28125 41.3125,4.5026 40.9375,4.94531 C40.5625,5.38802 40.375,6.07292 40.375,7 C40.375,7.9375 40.5625,8.6276 40.9375,9.07031 C41.3125,9.51302 41.9323,9.73438 42.7969,9.73438 C43.0885,9.73438 43.3698,9.69271 43.6406,9.60938 C43.9323,9.53646 44.2135,9.42188 44.4844,9.26562 L44.4844,9.76562 C44.2135,9.90104 43.9323,10 43.6406,10.0625 C43.3385,10.125 43.0417,10.1562 42.75,10.1562 C41.875,10.1562 41.1771,9.91667 40.6562,9.4375 C40.1354,8.95833 39.875,8.14323 39.875,6.99219 C39.875,5.84115 40.1354,5.02604 40.6562,4.54688 C41.1771,4.07812 41.875,3.84375 42.75,3.84375 C43.0417,3.84375 43.349,3.88542 43.6719,3.96875 C43.9948,4.04167 44.2656,4.14583 44.4844,4.28125 M50,5.01562 C49.6458,4.52604 49.1615,4.28125 48.5469,4.28125 C47.9323,4.28125 47.4479,4.52604 47.0938,5.01562 C46.7396,5.49479 46.5625,6.15104 46.5625,6.98438 C46.5625,7.83854 46.7396,8.51042 47.0938,9 C47.4479,9.48958 47.9323,9.73438 48.5469,9.73438 C49.1615,9.73438 49.6458,9.48958 50,9 C50.3542,8.5 50.5312,7.82812 50.5312,6.98438 C50.5312,6.16146 50.3542,5.50521 50,5.01562 M48.5469,3.84375 C49.3073,3.84375 49.9115,4.13021 50.3594,4.70312 C50.8073,5.27604 51.0312,6.03646 51.0312,6.98438 C51.0312,7.97396 50.8073,8.75521 50.3594,9.32812 C49.9115,9.90104 49.3073,10.1875 48.5469,10.1875 C47.7656,10.1875 47.151,9.90104 46.7031,9.32812 C46.2656,8.75521 46.0469,7.97396 46.0469,6.98438 C46.0469,6.02604 46.2708,5.26302 46.7188,4.69531 C47.1667,4.1276 47.776,3.84375 48.5469,3.84375 M57.6875,6.375 L57.6875,10 L57.1875,10 L57.1875,6.40625 C57.1875,5.625 57.0625,5.07552 56.8125,4.75781 C56.5625,4.4401 56.1927,4.28125 55.7031,4.28125 C55.1302,4.28125 54.6458,4.45312 54.25,4.79688 C53.8333,5.14062 53.625,5.73958 53.625,6.59375 L53.625,10 L53.1406,10 L53.1406,3.98438 L53.625,3.98438 L53.625,5.10938 C53.8021,4.74479 54.0365,4.46875 54.3281,4.28125 C54.7448,3.98958 55.2083,3.84375 55.7188,3.84375 C56.3229,3.84375 56.8021,4.04688 57.1562,4.45312 C57.5104,4.84896 57.6875,5.48958 57.6875,6.375 M60.625,2.28125 L60.625,3.98438 L62.6562,3.98438 L62.6562,4.40625 L60.625,4.40625 L60.625,8.01562 C60.625,8.47396 60.6823,8.79688 60.7969,8.98438 C61.0469,9.38021 61.4062,9.57812 61.875,9.57812 L62.6562,9.57812 L62.6562,10 L61.8906,10 C61.401,10 60.9844,9.85677 60.6406,9.57031 C60.2969,9.28385 60.125,8.76562 60.125,8.01562 L60.125,4.40625 L59.4062,4.40625 L59.4062,3.98438 L60.125,3.98438 L60.125,2.28125 L60.625,2.28125 M67.6875,4.40625 C67.6042,4.36458 67.4948,4.33333 67.3594,4.3125 C67.2344,4.29167 67.0833,4.28125 66.9062,4.28125 C66.2917,4.28125 65.7865,4.50521 65.3906,4.95312 C65.0677,5.31771 64.9062,5.94271 64.9062,6.82812 L64.9062,10 L64.4219,10 L64.4219,3.98438 L64.9062,3.98438 L64.9062,5.10938 C65.0729,4.78646 65.3021,4.51562 65.5938,4.29688 C65.9896,3.99479 66.4583,3.84375 67,3.84375 C67.1458,3.84375 67.2708,3.84896 67.375,3.85938 C67.4792,3.85938 67.5833,3.86979 67.6875,3.89062 L67.6875,4.40625 M72.5156,5.01562 C72.1615,4.52604 71.6771,4.28125 71.0625,4.28125 C70.4479,4.28125 69.9635,4.52604 69.6094,5.01562 C69.2552,5.49479 69.0781,6.15104 69.0781,6.98438 C69.0781,7.83854 69.2552,8.51042 69.6094,9 C69.9635,9.48958 70.4479,9.73438 71.0625,9.73438 C71.6771,9.73438 72.1615,9.48958 72.5156,9 C72.8698,8.5 73.0469,7.82812 73.0469,6.98438 C73.0469,6.16146 72.8698,5.50521 72.5156,5.01562 M71.0625,3.84375 C71.8229,3.84375 72.4271,4.13021 72.875,4.70312 C73.3229,5.27604 73.5469,6.03646 73.5469,6.98438 C73.5469,7.97396 73.3229,8.75521 72.875,9.32812 C72.4271,9.90104 71.8229,10.1875 71.0625,10.1875 C70.2812,10.1875 69.6667,9.90104 69.2188,9.32812 C68.7812,8.75521 68.5625,7.97396 68.5625,6.98438 C68.5625,6.02604 68.7865,5.26302 69.2344,4.69531 C69.6823,4.1276 70.2917,3.84375 71.0625,3.84375 M75.6562,1.64062 L76.1406,1.64062 L76.1406,10 L75.6562,10 L75.6562,1.64062"/>
</g>

<g fill="none" stroke="#000000" stroke-opacity="1" stroke-width="1" stroke-linecap="square" stroke-linejoin="bevel" transform="matrix(2,0,0,2,44.7381,131)"
font-family="sans" font-size="11" font-weight="100" font-style="normal" 
>
</g>

<g fill="none" stroke="#000000" stroke-opacity="1" stroke-width="1" stroke-linecap="square" stroke-linejoin="bevel" transform="matrix(2,0,0,2,44.7381,131)"
font-family="Sans Serif" font-size="9" font-weight="400" font-style="normal" 
>
</g>

<g fill="none" stroke="#000000" stroke-opacity="1" stroke-width="1" stroke-linecap="square" stroke-linejoin="bevel" transform="matrix(2,0,0,2,0.0012,180)"
font-family="Sans Serif" font-size="9" font-weight="400" font-style="normal" 
>
</g>

<g fill="none" stroke="#000000" stroke-opacity="1" stroke-width="1" stroke-linecap="square" stroke-linejoin="bevel" transform="matrix(2,0,0,2,0.0012,180)"
font-family="Sans Serif" font-size="9" font-weight="400" font-style="normal" 
>
</g>

<g fill="none" stroke="#000000" stroke-opacity="1" stroke-width="1" stroke-linecap="square" stroke-linejoin="bevel" transform="matrix(2,0,0,2,0.0012,180)"
font-family="Sans Serif" font-size="9" font-weight="400" font-style="normal" 
>
</g>

<g fill="none" stroke="#000000" stroke-opacity="1" stroke-width="1" stroke-linecap="square" stroke-linejoin="round" transform="matrix(2,0,0,2,0.0012,180)"
font-family="Sans Serif" font-size="9" font-weight="400" font-style="normal" 
>
<path vector-effect="none" fill-rule="evenodd" d="M377.63,-41.857 C418.3,-38.048 471.65,-33.052 519.01,-28.616 "/>
</g>

<g fill="none" stroke="#000000" stroke-opacity="1" stroke-width="1" stroke-linecap="square" stroke-linejoin="bevel" transform="matrix(2,0,0,2,0.0012,180)"
font-family="Sans Serif" font-size="9" font-weight="400" font-style="normal" 
>
</g>

<g fill="none" stroke="#000000" stroke-opacity="1" stroke-width="1" stroke-linecap="square" stroke-linejoin="bevel" transform="matrix(2,0,0,2,778.496,74)"
font-family="Sans Serif" font-size="9" font-weight="400" font-style="normal" 
>
</g>

<g fill="none" stroke="#000000" stroke-opacity="1" stroke-width="1" stroke-linecap="square" stroke-linejoin="bevel" transform="matrix(2,0,0,2,778.496,74)"
font-family="sans" font-size="11" font-weight="100" font-style="normal" 
>
</g>

<g fill="#000000" fill-opacity="1" stroke="#000000" stroke-opacity="1" stroke-width="1" stroke-linecap="square" stroke-linejoin="round" transform="matrix(2,0,0,2,778.496,74)"
font-family="sans" font-size="11" font-weight="100" font-style="normal" 
>
<path vector-effect="none" fill-rule="nonzero" d="M2.96875,1.98438 L3.53125,1.98438 L0.734375,11.0156 L0.171875,11.0156 L2.96875,1.98438 M5.46875,2.28125 L5.46875,3.98438 L7.5,3.98438 L7.5,4.40625 L5.46875,4.40625 L5.46875,8.01562 C5.46875,8.47396 5.52604,8.79688 5.64062,8.98438 C5.89062,9.38021 6.25,9.57812 6.71875,9.57812 L7.5,9.57812 L7.5,10 L6.73438,10 C6.24479,10 5.82812,9.85677 5.48438,9.57031 C5.14062,9.28385 4.96875,8.76562 4.96875,8.01562 L4.96875,4.40625 L4.25,4.40625 L4.25,3.98438 L4.96875,3.98438 L4.96875,2.28125 L5.46875,2.28125 M9.20312,7.60938 L9.20312,3.98438 L9.6875,3.98438 L9.6875,7.57812 C9.6875,8.35938 9.8125,8.90885 10.0625,9.22656 C10.3125,9.54427 10.6823,9.70312 11.1719,9.70312 C11.7448,9.70312 12.2344,9.53125 12.6406,9.1875 C13.0469,8.84375 13.25,8.24479 13.25,7.39062 L13.25,3.98438 L13.7344,3.98438 L13.7344,10 L13.25,10 L13.25,8.875 C13.0729,9.23958 12.8385,9.51562 12.5469,9.70312 C12.1302,9.99479 11.6667,10.1406 11.1562,10.1406 C10.5625,10.1406 10.0885,9.9375 9.73438,9.53125 C9.38021,9.13542 9.20312,8.49479 9.20312,7.60938 M19.5,4.40625 C19.4167,4.36458 19.3073,4.33333 19.1719,4.3125 C19.0469,4.29167 18.8958,4.28125 18.7188,4.28125 C18.1042,4.28125 17.599,4.50521 17.2031,4.95312 C16.8802,5.31771 16.7188,5.94271 16.7188,6.82812 L16.7188,10 L16.2344,10 L16.2344,3.98438 L16.7188,3.98438 L16.7188,5.10938 C16.8854,4.78646 17.1146,4.51562 17.4062,4.29688 C17.8021,3.99479 18.2708,3.84375 18.8125,3.84375 C18.9583,3.84375 19.0833,3.84896 19.1875,3.85938 C19.2917,3.85938 19.3958,3.86979 19.5,3.89062 L19.5,4.40625 M21.2656,2.28125 L21.2656,3.98438 L23.2969,3.98438 L23.2969,4.40625 L21.2656,4.40625 L21.2656,8.01562 C21.2656,8.47396 21.3229,8.79688 21.4375,8.98438 C21.6875,9.38021 22.0469,9.57812 22.5156,9.57812 L23.2969,9.57812 L23.2969,10 L22.5312,10 C22.0417,10 21.625,9.85677 21.2812,9.57031 C20.9375,9.28385 20.7656,8.76562 20.7656,8.01562 L20.7656,4.40625 L20.0469,4.40625 L20.0469,3.98438 L20.7656,3.98438 L20.7656,2.28125 L21.2656,2.28125 M25.0625,1.64062 L25.5469,1.64062 L25.5469,10 L25.0625,10 L25.0625,1.64062 M32.7969,6.75 L32.7969,7.0625 L28.2344,7.0625 C28.2344,8.02083 28.4219,8.69792 28.7969,9.09375 C29.2135,9.52083 29.8281,9.73438 30.6406,9.73438 C30.8594,9.73438 31.1458,9.6875 31.5,9.59375 C31.8542,9.5 32.2083,9.35938 32.5625,9.17188 L32.5625,9.6875 C32.2083,9.84375 31.8464,9.96094 31.4766,10.0391 C31.1068,10.1172 30.8125,10.1562 30.5938,10.1562 C29.6667,10.1562 28.9688,9.90625 28.5,9.40625 C27.9896,8.875 27.7344,8.09375 27.7344,7.0625 C27.7344,5.98958 27.9635,5.1875 28.4219,4.65625 C28.901,4.11458 29.5677,3.84375 30.4219,3.84375 C31.2031,3.84375 31.7969,4.10417 32.2031,4.625 C32.599,5.16667 32.7969,5.875 32.7969,6.75 M32.2969,6.64062 C32.2969,5.79688 32.1042,5.18229 31.7188,4.79688 C31.4062,4.45312 30.974,4.28125 30.4219,4.28125 C29.8281,4.28125 29.3281,4.45833 28.9219,4.8125 C28.5469,5.14583 28.3229,5.75521 28.25,6.64062 L32.2969,6.64062 M35.2656,9.5625 L37.0312,9.5625 L37.0312,2.46875 L34.8281,3.35938 L34.8281,2.85938 L37.0156,1.98438 L37.5625,1.98438 L37.5625,9.5625 L39.3438,9.5625 L39.3438,10 L35.2656,10 L35.2656,9.5625 M43.5781,1.98438 L44.1406,1.98438 L41.3438,11.0156 L40.7812,11.0156 L43.5781,1.98438 M49.6719,4.28125 L49.6719,4.79688 C49.3802,4.61979 49.1354,4.5 48.9375,4.4375 C48.6042,4.33333 48.2865,4.28125 47.9844,4.28125 C47.1198,4.28125 46.5,4.5026 46.125,4.94531 C45.75,5.38802 45.5625,6.07292 45.5625,7 C45.5625,7.9375 45.75,8.6276 46.125,9.07031 C46.5,9.51302 47.1198,9.73438 47.9844,9.73438 C48.276,9.73438 48.5573,9.69271 48.8281,9.60938 C49.1198,9.53646 49.401,9.42188 49.6719,9.26562 L49.6719,9.76562 C49.401,9.90104 49.1198,10 48.8281,10.0625 C48.526,10.125 48.2292,10.1562 47.9375,10.1562 C47.0625,10.1562 46.3646,9.91667 45.8438,9.4375 C45.3229,8.95833 45.0625,8.14323 45.0625,6.99219 C45.0625,5.84115 45.3229,5.02604 45.8438,4.54688 C46.3646,4.07812 47.0625,3.84375 47.9375,3.84375 C48.2292,3.84375 48.5365,3.88542 48.8594,3.96875 C49.1823,4.04167 49.4531,4.14583 49.6719,4.28125 M55.1875,5.01562 C54.8333,4.52604 54.349,4.28125 53.7344,4.28125 C53.1198,4.28125 52.6354,4.52604 52.2812,5.01562 C51.9271,5.49479 51.75,6.15104 51.75,6.98438 C51.75,7.83854 51.9271,8.51042 52.2812,9 C52.6354,9.48958 53.1198,9.73438 53.7344,9.73438 C54.349,9.73438 54.8333,9.48958 55.1875,9 C55.5417,8.5 55.7188,7.82812 55.7188,6.98438 C55.7188,6.16146 55.5417,5.50521 55.1875,5.01562 M53.7344,3.84375 C54.4948,3.84375 55.099,4.13021 55.5469,4.70312 C55.9948,5.27604 56.2188,6.03646 56.2188,6.98438 C56.2188,7.97396 55.9948,8.75521 55.5469,9.32812 C55.099,9.90104 54.4948,10.1875 53.7344,10.1875 C52.9531,10.1875 52.3385,9.90104 51.8906,9.32812 C51.4531,8.75521 51.2344,7.97396 51.2344,6.98438 C51.2344,6.02604 51.4583,5.26302 51.9062,4.69531 C52.3542,4.1276 52.9635,3.84375 53.7344,3.84375 M58.3281,1.64062 L58.8125,1.64062 L58.8125,10 L58.3281,10 L58.3281,1.64062 M64.9531,5.01562 C64.599,4.52604 64.1146,4.28125 63.5,4.28125 C62.8854,4.28125 62.401,4.52604 62.0469,5.01562 C61.6927,5.49479 61.5156,6.15104 61.5156,6.98438 C61.5156,7.83854 61.6927,8.51042 62.0469,9 C62.401,9.48958 62.8854,9.73438 63.5,9.73438 C64.1146,9.73438 64.599,9.48958 64.9531,9 C65.3073,8.5 65.4844,7.82812 65.4844,6.98438 C65.4844,6.16146 65.3073,5.50521 64.9531,5.01562 M63.5,3.84375 C64.2604,3.84375 64.8646,4.13021 65.3125,4.70312 C65.7604,5.27604 65.9844,6.03646 65.9844,6.98438 C65.9844,7.97396 65.7604,8.75521 65.3125,9.32812 C64.8646,9.90104 64.2604,10.1875 63.5,10.1875 C62.7188,10.1875 62.1042,9.90104 61.6562,9.32812 C61.2188,8.75521 61,7.97396 61,6.98438 C61,6.02604 61.224,5.26302 61.6719,4.69531 C62.1198,4.1276 62.7292,3.84375 63.5,3.84375 M71.3594,4.40625 C71.276,4.36458 71.1667,4.33333 71.0312,4.3125 C70.9062,4.29167 70.7552,4.28125 70.5781,4.28125 C69.9635,4.28125 69.4583,4.50521 69.0625,4.95312 C68.7396,5.31771 68.5781,5.94271 68.5781,6.82812 L68.5781,10 L68.0938,10 L68.0938,3.98438 L68.5781,3.98438 L68.5781,5.10938 C68.7448,4.78646 68.974,4.51562 69.2656,4.29688 C69.6615,3.99479 70.1302,3.84375 70.6719,3.84375 C70.8177,3.84375 70.9427,3.84896 71.0469,3.85938 C71.151,3.85938 71.2552,3.86979 71.3594,3.89062 L71.3594,4.40625 M76.9688,12.1719 L76.9688,12.5938 L71.25,12.5938 L71.25,12.1719 L76.9688,12.1719 M81.5156,4.15625 L81.5156,4.70312 C81.1615,4.50521 80.9427,4.39583 80.8594,4.375 C80.6094,4.32292 80.2969,4.29167 79.9219,4.28125 C79.3594,4.28125 78.9167,4.39062 78.5938,4.60938 C78.3438,4.79688 78.2188,5.11458 78.2188,5.5625 C78.2188,5.875 78.3385,6.11458 78.5781,6.28125 C78.8177,6.46875 79.1667,6.61458 79.625,6.71875 L79.9688,6.78125 C80.5417,6.90625 80.974,7.08333 81.2656,7.3125 C81.6094,7.58333 81.7865,7.92708 81.7969,8.34375 C81.7969,8.90625 81.6302,9.34896 81.2969,9.67188 C80.9427,9.99479 80.3646,10.1562 79.5625,10.1562 C79.125,10.1562 78.7917,10.125 78.5625,10.0625 C78.2812,9.98958 77.9896,9.89583 77.6875,9.78125 L77.6875,9.15625 C78.125,9.40625 78.4062,9.55208 78.5312,9.59375 C78.8854,9.6875 79.2396,9.73438 79.5938,9.73438 C80.1667,9.73438 80.5938,9.61458 80.875,9.375 C81.1562,9.125 81.2969,8.80729 81.2969,8.42188 C81.2969,8.08854 81.2031,7.84896 81.0156,7.70312 C80.7448,7.48438 80.3177,7.30729 79.7344,7.17188 L79.3906,7.09375 C78.8802,6.96875 78.4948,6.80208 78.2344,6.59375 C77.901,6.32292 77.7344,5.99479 77.7344,5.60938 C77.7344,4.98438 77.9349,4.53385 78.3359,4.25781 C78.737,3.98177 79.2292,3.84375 79.8125,3.84375 C80.3125,3.84375 80.6562,3.86979 80.8438,3.92188 C81.0729,3.98438 81.2969,4.0625 81.5156,4.15625 M88.5156,6.75 L88.5156,7.0625 L83.9531,7.0625 C83.9531,8.02083 84.1406,8.69792 84.5156,9.09375 C84.9323,9.52083 85.5469,9.73438 86.3594,9.73438 C86.5781,9.73438 86.8646,9.6875 87.2188,9.59375 C87.5729,9.5 87.9271,9.35938 88.2812,9.17188 L88.2812,9.6875 C87.9271,9.84375 87.5651,9.96094 87.1953,10.0391 C86.8255,10.1172 86.5312,10.1562 86.3125,10.1562 C85.3854,10.1562 84.6875,9.90625 84.2188,9.40625 C83.7083,8.875 83.4531,8.09375 83.4531,7.0625 C83.4531,5.98958 83.6823,5.1875 84.1406,4.65625 C84.6198,4.11458 85.2865,3.84375 86.1406,3.84375 C86.9219,3.84375 87.5156,4.10417 87.9219,4.625 C88.3177,5.16667 88.5156,5.875 88.5156,6.75 M88.0156,6.64062 C88.0156,5.79688 87.8229,5.18229 87.4375,4.79688 C87.125,4.45312 86.6927,4.28125 86.1406,4.28125 C85.5469,4.28125 85.0469,4.45833 84.6406,4.8125 C84.2656,5.14583 84.0417,5.75521 83.9688,6.64062 L88.0156,6.64062 M95.1406,6.375 L95.1406,10 L94.6406,10 L94.6406,6.40625 C94.6406,5.625 94.5156,5.07552 94.2656,4.75781 C94.0156,4.4401 93.6458,4.28125 93.1562,4.28125 C92.5833,4.28125 92.099,4.45312 91.7031,4.79688 C91.2865,5.14062 91.0781,5.73958 91.0781,6.59375 L91.0781,10 L90.5938,10 L90.5938,3.98438 L91.0781,3.98438 L91.0781,5.10938 C91.2552,4.74479 91.4896,4.46875 91.7812,4.28125 C92.1979,3.98958 92.6615,3.84375 93.1719,3.84375 C93.776,3.84375 94.2552,4.04688 94.6094,4.45312 C94.9635,4.84896 95.1406,5.48958 95.1406,6.375 M100.969,4.15625 L100.969,4.70312 C100.615,4.50521 100.396,4.39583 100.312,4.375 C100.062,4.32292 99.75,4.29167 99.375,4.28125 C98.8125,4.28125 98.3698,4.39062 98.0469,4.60938 C97.7969,4.79688 97.6719,5.11458 97.6719,5.5625 C97.6719,5.875 97.7917,6.11458 98.0312,6.28125 C98.2708,6.46875 98.6198,6.61458 99.0781,6.71875 L99.4219,6.78125 C99.9948,6.90625 100.427,7.08333 100.719,7.3125 C101.062,7.58333 101.24,7.92708 101.25,8.34375 C101.25,8.90625 101.083,9.34896 100.75,9.67188 C100.396,9.99479 99.8177,10.1562 99.0156,10.1562 C98.5781,10.1562 98.2448,10.125 98.0156,10.0625 C97.7344,9.98958 97.4427,9.89583 97.1406,9.78125 L97.1406,9.15625 C97.5781,9.40625 97.8594,9.55208 97.9844,9.59375 C98.3385,9.6875 98.6927,9.73438 99.0469,9.73438 C99.6198,9.73438 100.047,9.61458 100.328,9.375 C100.609,9.125 100.75,8.80729 100.75,8.42188 C100.75,8.08854 100.656,7.84896 100.469,7.70312 C100.198,7.48438 99.7708,7.30729 99.1875,7.17188 L98.8438,7.09375 C98.3333,6.96875 97.9479,6.80208 97.6875,6.59375 C97.3542,6.32292 97.1875,5.99479 97.1875,5.60938 C97.1875,4.98438 97.388,4.53385 97.7891,4.25781 C98.1901,3.98177 98.6823,3.84375 99.2656,3.84375 C99.7656,3.84375 100.109,3.86979 100.297,3.92188 C100.526,3.98438 100.75,4.0625 100.969,4.15625 M106.859,5.01562 C106.505,4.52604 106.021,4.28125 105.406,4.28125 C104.792,4.28125 104.307,4.52604 103.953,5.01562 C103.599,5.49479 103.422,6.15104 103.422,6.98438 C103.422,7.83854 103.599,8.51042 103.953,9 C104.307,9.48958 104.792,9.73438 105.406,9.73438 C106.021,9.73438 106.505,9.48958 106.859,9 C107.214,8.5 107.391,7.82812 107.391,6.98438 C107.391,6.16146 107.214,5.50521 106.859,5.01562 M105.406,3.84375 C106.167,3.84375 106.771,4.13021 107.219,4.70312 C107.667,5.27604 107.891,6.03646 107.891,6.98438 C107.891,7.97396 107.667,8.75521 107.219,9.32812 C106.771,9.90104 106.167,10.1875 105.406,10.1875 C104.625,10.1875 104.01,9.90104 103.562,9.32812 C103.125,8.75521 102.906,7.97396 102.906,6.98438 C102.906,6.02604 103.13,5.26302 103.578,4.69531 C104.026,4.1276 104.635,3.84375 105.406,3.84375 M113.266,4.40625 C113.182,4.36458 113.073,4.33333 112.938,4.3125 C112.812,4.29167 112.661,4.28125 112.484,4.28125 C111.87,4.28125 111.365,4.50521 110.969,4.95312 C110.646,5.31771 110.484,5.94271 110.484,6.82812 L110.484,10 L110,10 L110,3.98438 L110.484,3.98438 L110.484,5.10938 C110.651,4.78646 110.88,4.51562 111.172,4.29688 C111.568,3.99479 112.036,3.84375 112.578,3.84375 C112.724,3.84375 112.849,3.84896 112.953,3.85938 C113.057,3.85938 113.161,3.86979 113.266,3.89062 L113.266,4.40625"/>
</g>

<g fill="none" stroke="#000000" stroke-opacity="1" stroke-width="1" stroke-linecap="square" stroke-linejoin="bevel" transform="matrix(2,0,0,2,778.496,74)"
font-family="sans" font-size="11" font-weight="100" font-style="normal" 
>
</g>

<g fill="none" stroke="#000000" stroke-opacity="1" stroke-width="1" stroke-linecap="square" stroke-linejoin="bevel" transform="matrix(2,0,0,2,778.496,74)"
font-family="Sans Serif" font-size="9" font-weight="400" font-style="normal" 
>
</g>

<g fill="none" stroke="#000000" stroke-opacity="1" stroke-width="1" stroke-linecap="square" stroke-linejoin="bevel" transform="matrix(2,0,0,2,0.0012,180)"
font-family="Sans Serif" font-size="9" font-weight="400" font-style="normal" 
>
</g>

<g fill="#000000" fill-opacity="1" stroke="#000000" stroke-opacity="1" stroke-width="1" stroke-linecap="square" stroke-linejoin="round" transform="matrix(2,0,0,2,0.0012,180)"
font-family="Sans Serif" font-size="9" font-weight="400" font-style="normal" 
>
<path vector-effect="none" fill-rule="evenodd" d="M519.01,-28.616 L518.682,-25.1125 L529.02,-27.679 L519.338,-32.1195 L519.01,-28.616"/>
</g>

<g fill="none" stroke="#000000" stroke-opacity="1" stroke-width="1" stroke-linecap="square" stroke-linejoin="bevel" transform="matrix(2,0,0,2,0.0012,180)"
font-family="Sans Serif" font-size="9" font-weight="400" font-style="normal" 
>
</g>

<g fill="none" stroke="#000000" stroke-opacity="1" stroke-width="1" stroke-linecap="square" stroke-linejoin="bevel" transform="matrix(2,0,0,2,0.0012,180)"
font-family="Sans Serif" font-size="9" font-weight="400" font-style="normal" 
>
</g>

<g fill="none" stroke="#000000" stroke-opacity="1" stroke-width="1" stroke-linecap="square" stroke-linejoin="bevel" transform="matrix(2,0,0,2,0.0012,180)"
font-family="Sans Serif" font-size="9" font-weight="400" font-style="normal" 
>
</g>

<g fill="none" stroke="#000000" stroke-opacity="1" stroke-width="1" stroke-linecap="square" stroke-linejoin="bevel" transform="matrix(2,0,0,2,0.0012,180)"
font-family="Sans Serif" font-size="9" font-weight="400" font-style="normal" 
>
</g>

<g fill="none" stroke="#000000" stroke-opacity="1" stroke-width="1" stroke-linecap="square" stroke-linejoin="round" transform="matrix(2,0,0,2,0.0012,180)"
font-family="Sans Serif" font-size="9" font-weight="400" font-style="normal" 
>
<path vector-effect="none" fill-rule="evenodd" d="M118.05,-24.77 C153.18,-29.022 198.88,-34.551 236.88,-39.148 "/>
</g>

<g fill="none" stroke="#000000" stroke-opacity="1" stroke-width="1" stroke-linecap="square" stroke-linejoin="bevel" transform="matrix(2,0,0,2,0.0012,180)"
font-family="Sans Serif" font-size="9" font-weight="400" font-style="normal" 
>
</g>

<g fill="none" stroke="#000000" stroke-opacity="1" stroke-width="1" stroke-linecap="square" stroke-linejoin="bevel" transform="matrix(2,0,0,2,262.319,76)"
font-family="Sans Serif" font-size="9" font-weight="400" font-style="normal" 
>
</g>

<g fill="none" stroke="#000000" stroke-opacity="1" stroke-width="1" stroke-linecap="square" stroke-linejoin="bevel" transform="matrix(2,0,0,2,262.319,76)"
font-family="sans" font-size="11" font-weight="100" font-style="normal" 
>
</g>

<g fill="#000000" fill-opacity="1" stroke="#000000" stroke-opacity="1" stroke-width="1" stroke-linecap="square" stroke-linejoin="round" transform="matrix(2,0,0,2,262.319,76)"
font-family="sans" font-size="11" font-weight="100" font-style="normal" 
>
<path vector-effect="none" fill-rule="nonzero" d="M2.96875,1.98438 L3.53125,1.98438 L0.734375,11.0156 L0.171875,11.0156 L2.96875,1.98438 M9.28125,5.29688 C9.46875,4.80729 9.76042,4.44271 10.1562,4.20312 C10.5417,3.96354 10.9948,3.84375 11.5156,3.84375 C12.0365,3.84375 12.4531,4.02604 12.7656,4.39062 C13.0885,4.75521 13.25,5.41667 13.25,6.375 L13.25,10 L12.7656,10 L12.7656,6.40625 C12.7656,5.57292 12.651,5.01042 12.4219,4.71875 C12.1927,4.42708 11.8854,4.28125 11.5,4.28125 C10.9479,4.28125 10.4635,4.44792 10.0469,4.78125 C9.57812,5.15625 9.34375,5.76042 9.34375,6.59375 L9.34375,10 L8.85938,10 L8.85938,6.40625 C8.85938,5.60417 8.7474,5.04948 8.52344,4.74219 C8.29948,4.4349 7.98958,4.28125 7.59375,4.28125 C7.04167,4.28125 6.55729,4.45312 6.14062,4.79688 C5.67188,5.16146 5.4375,5.76042 5.4375,6.59375 L5.4375,10 L4.95312,10 L4.95312,3.98438 L5.4375,3.98438 L5.4375,5.10938 C5.61458,4.71354 5.89062,4.40104 6.26562,4.17188 C6.63021,3.95312 7.08333,3.84375 7.625,3.84375 C7.97917,3.84375 8.31771,3.95833 8.64062,4.1875 C8.89062,4.375 9.10417,4.74479 9.28125,5.29688 M17.6875,10.5625 C17.4688,11.0938 17.2344,11.4635 16.9844,11.6719 C16.651,11.9427 16.3281,12.0781 16.0156,12.0781 L15.2812,12.0781 L15.2812,11.6562 L15.9062,11.6562 C16.1667,11.6562 16.3958,11.5729 16.5938,11.4062 C16.8438,11.1875 17.0521,10.8698 17.2188,10.4531 L17.3906,10 L15,3.98438 L15.5312,3.98438 L17.6562,9.34375 L19.7969,3.98438 L20.3281,3.98438 L17.6875,10.5625 M22.6719,2.28125 L22.6719,3.98438 L24.7031,3.98438 L24.7031,4.40625 L22.6719,4.40625 L22.6719,8.01562 C22.6719,8.47396 22.7292,8.79688 22.8438,8.98438 C23.0938,9.38021 23.4531,9.57812 23.9219,9.57812 L24.7031,9.57812 L24.7031,10 L23.9375,10 C23.4479,10 23.0312,9.85677 22.6875,9.57031 C22.3438,9.28385 22.1719,8.76562 22.1719,8.01562 L22.1719,4.40625 L21.4531,4.40625 L21.4531,3.98438 L22.1719,3.98438 L22.1719,2.28125 L22.6719,2.28125 M26.4062,7.60938 L26.4062,3.98438 L26.8906,3.98438 L26.8906,7.57812 C26.8906,8.35938 27.0156,8.90885 27.2656,9.22656 C27.5156,9.54427 27.8854,9.70312 28.375,9.70312 C28.9479,9.70312 29.4375,9.53125 29.8438,9.1875 C30.25,8.84375 30.4531,8.24479 30.4531,7.39062 L30.4531,3.98438 L30.9375,3.98438 L30.9375,10 L30.4531,10 L30.4531,8.875 C30.276,9.23958 30.0417,9.51562 29.75,9.70312 C29.3333,9.99479 28.8698,10.1406 28.3594,10.1406 C27.7656,10.1406 27.2917,9.9375 26.9375,9.53125 C26.5833,9.13542 26.4062,8.49479 26.4062,7.60938 M36.7031,4.40625 C36.6198,4.36458 36.5104,4.33333 36.375,4.3125 C36.25,4.29167 36.099,4.28125 35.9219,4.28125 C35.3073,4.28125 34.8021,4.50521 34.4062,4.95312 C34.0833,5.31771 33.9219,5.94271 33.9219,6.82812 L33.9219,10 L33.4375,10 L33.4375,3.98438 L33.9219,3.98438 L33.9219,5.10938 C34.0885,4.78646 34.3177,4.51562 34.6094,4.29688 C35.0052,3.99479 35.474,3.84375 36.0156,3.84375 C36.1615,3.84375 36.2865,3.84896 36.3906,3.85938 C36.4948,3.85938 36.599,3.86979 36.7031,3.89062 L36.7031,4.40625 M38.4688,2.28125 L38.4688,3.98438 L40.5,3.98438 L40.5,4.40625 L38.4688,4.40625 L38.4688,8.01562 C38.4688,8.47396 38.526,8.79688 38.6406,8.98438 C38.8906,9.38021 39.25,9.57812 39.7188,9.57812 L40.5,9.57812 L40.5,10 L39.7344,10 C39.2448,10 38.8281,9.85677 38.4844,9.57031 C38.1406,9.28385 37.9688,8.76562 37.9688,8.01562 L37.9688,4.40625 L37.25,4.40625 L37.25,3.98438 L37.9688,3.98438 L37.9688,2.28125 L38.4688,2.28125 M42.2656,1.64062 L42.75,1.64062 L42.75,10 L42.2656,10 L42.2656,1.64062 M50,6.75 L50,7.0625 L45.4375,7.0625 C45.4375,8.02083 45.625,8.69792 46,9.09375 C46.4167,9.52083 47.0312,9.73438 47.8438,9.73438 C48.0625,9.73438 48.349,9.6875 48.7031,9.59375 C49.0573,9.5 49.4115,9.35938 49.7656,9.17188 L49.7656,9.6875 C49.4115,9.84375 49.0495,9.96094 48.6797,10.0391 C48.3099,10.1172 48.0156,10.1562 47.7969,10.1562 C46.8698,10.1562 46.1719,9.90625 45.7031,9.40625 C45.1927,8.875 44.9375,8.09375 44.9375,7.0625 C44.9375,5.98958 45.1667,5.1875 45.625,4.65625 C46.1042,4.11458 46.7708,3.84375 47.625,3.84375 C48.4062,3.84375 49,4.10417 49.4062,4.625 C49.8021,5.16667 50,5.875 50,6.75 M49.5,6.64062 C49.5,5.79688 49.3073,5.18229 48.9219,4.79688 C48.6094,4.45312 48.1771,4.28125 47.625,4.28125 C47.0312,4.28125 46.5312,4.45833 46.125,4.8125 C45.75,5.14583 45.526,5.75521 45.4531,6.64062 L49.5,6.64062 M53.7969,1.98438 L54.3594,1.98438 L51.5625,11.0156 L51,11.0156 L53.7969,1.98438 M59.8906,4.28125 L59.8906,4.79688 C59.599,4.61979 59.3542,4.5 59.1562,4.4375 C58.8229,4.33333 58.5052,4.28125 58.2031,4.28125 C57.3385,4.28125 56.7188,4.5026 56.3438,4.94531 C55.9688,5.38802 55.7812,6.07292 55.7812,7 C55.7812,7.9375 55.9688,8.6276 56.3438,9.07031 C56.7188,9.51302 57.3385,9.73438 58.2031,9.73438 C58.4948,9.73438 58.776,9.69271 59.0469,9.60938 C59.3385,9.53646 59.6198,9.42188 59.8906,9.26562 L59.8906,9.76562 C59.6198,9.90104 59.3385,10 59.0469,10.0625 C58.7448,10.125 58.4479,10.1562 58.1562,10.1562 C57.2812,10.1562 56.5833,9.91667 56.0625,9.4375 C55.5417,8.95833 55.2812,8.14323 55.2812,6.99219 C55.2812,5.84115 55.5417,5.02604 56.0625,4.54688 C56.5833,4.07812 57.2812,3.84375 58.1562,3.84375 C58.4479,3.84375 58.7552,3.88542 59.0781,3.96875 C59.401,4.04167 59.6719,4.14583 59.8906,4.28125 M66.1562,5.29688 C66.3438,4.80729 66.6354,4.44271 67.0312,4.20312 C67.4167,3.96354 67.8698,3.84375 68.3906,3.84375 C68.9115,3.84375 69.3281,4.02604 69.6406,4.39062 C69.9635,4.75521 70.125,5.41667 70.125,6.375 L70.125,10 L69.6406,10 L69.6406,6.40625 C69.6406,5.57292 69.526,5.01042 69.2969,4.71875 C69.0677,4.42708 68.7604,4.28125 68.375,4.28125 C67.8229,4.28125 67.3385,4.44792 66.9219,4.78125 C66.4531,5.15625 66.2188,5.76042 66.2188,6.59375 L66.2188,10 L65.7344,10 L65.7344,6.40625 C65.7344,5.60417 65.6224,5.04948 65.3984,4.74219 C65.1745,4.4349 64.8646,4.28125 64.4688,4.28125 C63.9167,4.28125 63.4323,4.45312 63.0156,4.79688 C62.5469,5.16146 62.3125,5.76042 62.3125,6.59375 L62.3125,10 L61.8281,10 L61.8281,3.98438 L62.3125,3.98438 L62.3125,5.10938 C62.4896,4.71354 62.7656,4.40104 63.1406,4.17188 C63.5052,3.95312 63.9583,3.84375 64.5,3.84375 C64.8542,3.84375 65.1927,3.95833 65.5156,4.1875 C65.7656,4.375 65.9792,4.74479 66.1562,5.29688 M76.5312,5.35938 L76.5312,1.64062 L77,1.64062 L77,10 L76.5312,10 L76.5312,8.64062 C76.3021,9.16146 76.0521,9.51562 75.7812,9.70312 C75.3854,10.0052 75.0052,10.1562 74.6406,10.1562 C73.9323,10.1562 73.3411,9.86719 72.8672,9.28906 C72.3932,8.71094 72.1562,7.94792 72.1562,7 C72.1562,6.05208 72.3932,5.28906 72.8672,4.71094 C73.3411,4.13281 73.9323,3.84375 74.6406,3.84375 C75.0052,3.84375 75.3854,3.98958 75.7812,4.28125 C76.0521,4.47917 76.3021,4.83854 76.5312,5.35938 M73.2969,4.90625 C72.8802,5.32292 72.6719,6.02083 72.6719,7 C72.6719,7.97917 72.8802,8.67708 73.2969,9.09375 C73.7135,9.51042 74.151,9.71875 74.6094,9.71875 C75.0573,9.71875 75.4896,9.51042 75.9062,9.09375 C76.3125,8.67708 76.5156,7.97917 76.5156,7 C76.5156,6.02083 76.3125,5.32292 75.9062,4.90625 C75.4896,4.48958 75.0573,4.28125 74.6094,4.28125 C74.151,4.28125 73.7135,4.48958 73.2969,4.90625 M83.8594,12.1719 L83.8594,12.5938 L78.1406,12.5938 L78.1406,12.1719 L83.8594,12.1719 M84.4531,3.98438 L84.9688,3.98438 L87,9.45312 L89.0469,3.98438 L89.5625,3.98438 L87.3281,10 L86.6875,10 L84.4531,3.98438 M96.1875,6.75 L96.1875,7.0625 L91.625,7.0625 C91.625,8.02083 91.8125,8.69792 92.1875,9.09375 C92.6042,9.52083 93.2188,9.73438 94.0312,9.73438 C94.25,9.73438 94.5365,9.6875 94.8906,9.59375 C95.2448,9.5 95.599,9.35938 95.9531,9.17188 L95.9531,9.6875 C95.599,9.84375 95.237,9.96094 94.8672,10.0391 C94.4974,10.1172 94.2031,10.1562 93.9844,10.1562 C93.0573,10.1562 92.3594,9.90625 91.8906,9.40625 C91.3802,8.875 91.125,8.09375 91.125,7.0625 C91.125,5.98958 91.3542,5.1875 91.8125,4.65625 C92.2917,4.11458 92.9583,3.84375 93.8125,3.84375 C94.5938,3.84375 95.1875,4.10417 95.5938,4.625 C95.9896,5.16667 96.1875,5.875 96.1875,6.75 M95.6875,6.64062 C95.6875,5.79688 95.4948,5.18229 95.1094,4.79688 C94.7969,4.45312 94.3646,4.28125 93.8125,4.28125 C93.2188,4.28125 92.7188,4.45833 92.3125,4.8125 C91.9375,5.14583 91.7135,5.75521 91.6406,6.64062 L95.6875,6.64062 M98.2656,1.64062 L98.75,1.64062 L98.75,10 L98.2656,10 L98.2656,1.64062"/>
</g>

<g fill="none" stroke="#000000" stroke-opacity="1" stroke-width="1" stroke-linecap="square" stroke-linejoin="bevel" transform="matrix(2,0,0,2,262.319,76)"
font-family="sans" font-size="11" font-weight="100" font-style="normal" 
>
</g>

<g fill="none" stroke="#000000" stroke-opacity="1" stroke-width="1" stroke-linecap="square" stroke-linejoin="bevel" transform="matrix(2,0,0,2,262.319,76)"
font-family="Sans Serif" font-size="9" font-weight="400" font-style="normal" 
>
</g>

<g fill="none" stroke="#000000" stroke-opacity="1" stroke-width="1" stroke-linecap="square" stroke-linejoin="bevel" transform="matrix(2,0,0,2,0.0012,180)"
font-family="Sans Serif" font-size="9" font-weight="400" font-style="normal" 
>
</g>

<g fill="#000000" fill-opacity="1" stroke="#000000" stroke-opacity="1" stroke-width="1" stroke-linecap="square" stroke-linejoin="round" transform="matrix(2,0,0,2,0.0012,180)"
font-family="Sans Serif" font-size="9" font-weight="400" font-style="normal" 
>
<path vector-effect="none" fill-rule="evenodd" d="M236.88,-39.148 L237.303,-35.655 L246.86,-40.357 L236.457,-42.641 L236.88,-39.148"/>
</g>

<g fill="none" stroke="#000000" stroke-opacity="1" stroke-width="1" stroke-linecap="square" stroke-linejoin="bevel" transform="matrix(2,0,0,2,0.0012,180)"
font-family="Sans Serif" font-size="9" font-weight="400" font-style="normal" 
>
</g>

<g fill="none" stroke="#000000" stroke-opacity="1" stroke-width="1" stroke-linecap="square" stroke-linejoin="bevel" transform="matrix(2,0,0,2,0.0012,180)"
font-family="Sans Serif" font-size="9" font-weight="400" font-style="normal" 
>
</g>

<g fill="none" stroke="#000000" stroke-opacity="1" stroke-width="1" stroke-linecap="square" stroke-linejoin="bevel" transform="matrix(2,0,0,2,0.0012,180)"
font-family="Sans Serif" font-size="9" font-weight="400" font-style="normal" 
>
</g>

<g fill="none" stroke="#000000" stroke-opacity="1" stroke-width="1" stroke-linecap="square" stroke-linejoin="bevel" transform="matrix(2,0,0,2,0.0012,180)"
font-family="Sans Serif" font-size="9" font-weight="400" font-style="normal" 
>
</g>

<g fill="none" stroke="#000000" stroke-opacity="1" stroke-width="1" stroke-linecap="square" stroke-linejoin="round" transform="matrix(2,0,0,2,0.0012,180)"
font-family="Sans Serif" font-size="9" font-weight="400" font-style="normal" 
>
<path vector-effect="none" fill-rule="evenodd" d="M120.2,-13.094 C154.98,-10.405 200.08,-7.3497 240.19,-6 C330.43,-2.9633 432.36,-6.2882 509.68,-10.201 "/>
</g>

<g fill="none" stroke="#000000" stroke-opacity="1" stroke-width="1" stroke-linecap="square" stroke-linejoin="bevel" transform="matrix(2,0,0,2,0.0012,180)"
font-family="Sans Serif" font-size="9" font-weight="400" font-style="normal" 
>
</g>

<g fill="none" stroke="#000000" stroke-opacity="1" stroke-width="1" stroke-linecap="square" stroke-linejoin="bevel" transform="matrix(2,0,0,2,521.999,140)"
font-family="Sans Serif" font-size="9" font-weight="400" font-style="normal" 
>
</g>

<g fill="none" stroke="#000000" stroke-opacity="1" stroke-width="1" stroke-linecap="square" stroke-linejoin="bevel" transform="matrix(2,0,0,2,521.999,140)"
font-family="sans" font-size="11" font-weight="100" font-style="normal" 
>
</g>

<g fill="#000000" fill-opacity="1" stroke="#000000" stroke-opacity="1" stroke-width="1" stroke-linecap="square" stroke-linejoin="round" transform="matrix(2,0,0,2,521.999,140)"
font-family="sans" font-size="11" font-weight="100" font-style="normal" 
>
<path vector-effect="none" fill-rule="nonzero" d="M2.96875,1.98438 L3.53125,1.98438 L0.734375,11.0156 L0.171875,11.0156 L2.96875,1.98438 M9.28125,5.29688 C9.46875,4.80729 9.76042,4.44271 10.1562,4.20312 C10.5417,3.96354 10.9948,3.84375 11.5156,3.84375 C12.0365,3.84375 12.4531,4.02604 12.7656,4.39062 C13.0885,4.75521 13.25,5.41667 13.25,6.375 L13.25,10 L12.7656,10 L12.7656,6.40625 C12.7656,5.57292 12.651,5.01042 12.4219,4.71875 C12.1927,4.42708 11.8854,4.28125 11.5,4.28125 C10.9479,4.28125 10.4635,4.44792 10.0469,4.78125 C9.57812,5.15625 9.34375,5.76042 9.34375,6.59375 L9.34375,10 L8.85938,10 L8.85938,6.40625 C8.85938,5.60417 8.7474,5.04948 8.52344,4.74219 C8.29948,4.4349 7.98958,4.28125 7.59375,4.28125 C7.04167,4.28125 6.55729,4.45312 6.14062,4.79688 C5.67188,5.16146 5.4375,5.76042 5.4375,6.59375 L5.4375,10 L4.95312,10 L4.95312,3.98438 L5.4375,3.98438 L5.4375,5.10938 C5.61458,4.71354 5.89062,4.40104 6.26562,4.17188 C6.63021,3.95312 7.08333,3.84375 7.625,3.84375 C7.97917,3.84375 8.31771,3.95833 8.64062,4.1875 C8.89062,4.375 9.10417,4.74479 9.28125,5.29688 M17.6875,10.5625 C17.4688,11.0938 17.2344,11.4635 16.9844,11.6719 C16.651,11.9427 16.3281,12.0781 16.0156,12.0781 L15.2812,12.0781 L15.2812,11.6562 L15.9062,11.6562 C16.1667,11.6562 16.3958,11.5729 16.5938,11.4062 C16.8438,11.1875 17.0521,10.8698 17.2188,10.4531 L17.3906,10 L15,3.98438 L15.5312,3.98438 L17.6562,9.34375 L19.7969,3.98438 L20.3281,3.98438 L17.6875,10.5625 M22.6719,2.28125 L22.6719,3.98438 L24.7031,3.98438 L24.7031,4.40625 L22.6719,4.40625 L22.6719,8.01562 C22.6719,8.47396 22.7292,8.79688 22.8438,8.98438 C23.0938,9.38021 23.4531,9.57812 23.9219,9.57812 L24.7031,9.57812 L24.7031,10 L23.9375,10 C23.4479,10 23.0312,9.85677 22.6875,9.57031 C22.3438,9.28385 22.1719,8.76562 22.1719,8.01562 L22.1719,4.40625 L21.4531,4.40625 L21.4531,3.98438 L22.1719,3.98438 L22.1719,2.28125 L22.6719,2.28125 M26.4062,7.60938 L26.4062,3.98438 L26.8906,3.98438 L26.8906,7.57812 C26.8906,8.35938 27.0156,8.90885 27.2656,9.22656 C27.5156,9.54427 27.8854,9.70312 28.375,9.70312 C28.9479,9.70312 29.4375,9.53125 29.8438,9.1875 C30.25,8.84375 30.4531,8.24479 30.4531,7.39062 L30.4531,3.98438 L30.9375,3.98438 L30.9375,10 L30.4531,10 L30.4531,8.875 C30.276,9.23958 30.0417,9.51562 29.75,9.70312 C29.3333,9.99479 28.8698,10.1406 28.3594,10.1406 C27.7656,10.1406 27.2917,9.9375 26.9375,9.53125 C26.5833,9.13542 26.4062,8.49479 26.4062,7.60938 M36.7031,4.40625 C36.6198,4.36458 36.5104,4.33333 36.375,4.3125 C36.25,4.29167 36.099,4.28125 35.9219,4.28125 C35.3073,4.28125 34.8021,4.50521 34.4062,4.95312 C34.0833,5.31771 33.9219,5.94271 33.9219,6.82812 L33.9219,10 L33.4375,10 L33.4375,3.98438 L33.9219,3.98438 L33.9219,5.10938 C34.0885,4.78646 34.3177,4.51562 34.6094,4.29688 C35.0052,3.99479 35.474,3.84375 36.0156,3.84375 C36.1615,3.84375 36.2865,3.84896 36.3906,3.85938 C36.4948,3.85938 36.599,3.86979 36.7031,3.89062 L36.7031,4.40625 M38.4688,2.28125 L38.4688,3.98438 L40.5,3.98438 L40.5,4.40625 L38.4688,4.40625 L38.4688,8.01562 C38.4688,8.47396 38.526,8.79688 38.6406,8.98438 C38.8906,9.38021 39.25,9.57812 39.7188,9.57812 L40.5,9.57812 L40.5,10 L39.7344,10 C39.2448,10 38.8281,9.85677 38.4844,9.57031 C38.1406,9.28385 37.9688,8.76562 37.9688,8.01562 L37.9688,4.40625 L37.25,4.40625 L37.25,3.98438 L37.9688,3.98438 L37.9688,2.28125 L38.4688,2.28125 M42.2656,1.64062 L42.75,1.64062 L42.75,10 L42.2656,10 L42.2656,1.64062 M50,6.75 L50,7.0625 L45.4375,7.0625 C45.4375,8.02083 45.625,8.69792 46,9.09375 C46.4167,9.52083 47.0312,9.73438 47.8438,9.73438 C48.0625,9.73438 48.349,9.6875 48.7031,9.59375 C49.0573,9.5 49.4115,9.35938 49.7656,9.17188 L49.7656,9.6875 C49.4115,9.84375 49.0495,9.96094 48.6797,10.0391 C48.3099,10.1172 48.0156,10.1562 47.7969,10.1562 C46.8698,10.1562 46.1719,9.90625 45.7031,9.40625 C45.1927,8.875 44.9375,8.09375 44.9375,7.0625 C44.9375,5.98958 45.1667,5.1875 45.625,4.65625 C46.1042,4.11458 46.7708,3.84375 47.625,3.84375 C48.4062,3.84375 49,4.10417 49.4062,4.625 C49.8021,5.16667 50,5.875 50,6.75 M49.5,6.64062 C49.5,5.79688 49.3073,5.18229 48.9219,4.79688 C48.6094,4.45312 48.1771,4.28125 47.625,4.28125 C47.0312,4.28125 46.5312,4.45833 46.125,4.8125 C45.75,5.14583 45.526,5.75521 45.4531,6.64062 L49.5,6.64062 M53.7969,1.98438 L54.3594,1.98438 L51.5625,11.0156 L51,11.0156 L53.7969,1.98438 M59.8906,4.28125 L59.8906,4.79688 C59.599,4.61979 59.3542,4.5 59.1562,4.4375 C58.8229,4.33333 58.5052,4.28125 58.2031,4.28125 C57.3385,4.28125 56.7188,4.5026 56.3438,4.94531 C55.9688,5.38802 55.7812,6.07292 55.7812,7 C55.7812,7.9375 55.9688,8.6276 56.3438,9.07031 C56.7188,9.51302 57.3385,9.73438 58.2031,9.73438 C58.4948,9.73438 58.776,9.69271 59.0469,9.60938 C59.3385,9.53646 59.6198,9.42188 59.8906,9.26562 L59.8906,9.76562 C59.6198,9.90104 59.3385,10 59.0469,10.0625 C58.7448,10.125 58.4479,10.1562 58.1562,10.1562 C57.2812,10.1562 56.5833,9.91667 56.0625,9.4375 C55.5417,8.95833 55.2812,8.14323 55.2812,6.99219 C55.2812,5.84115 55.5417,5.02604 56.0625,4.54688 C56.5833,4.07812 57.2812,3.84375 58.1562,3.84375 C58.4479,3.84375 58.7552,3.88542 59.0781,3.96875 C59.401,4.04167 59.6719,4.14583 59.8906,4.28125 M66.1562,5.29688 C66.3438,4.80729 66.6354,4.44271 67.0312,4.20312 C67.4167,3.96354 67.8698,3.84375 68.3906,3.84375 C68.9115,3.84375 69.3281,4.02604 69.6406,4.39062 C69.9635,4.75521 70.125,5.41667 70.125,6.375 L70.125,10 L69.6406,10 L69.6406,6.40625 C69.6406,5.57292 69.526,5.01042 69.2969,4.71875 C69.0677,4.42708 68.7604,4.28125 68.375,4.28125 C67.8229,4.28125 67.3385,4.44792 66.9219,4.78125 C66.4531,5.15625 66.2188,5.76042 66.2188,6.59375 L66.2188,10 L65.7344,10 L65.7344,6.40625 C65.7344,5.60417 65.6224,5.04948 65.3984,4.74219 C65.1745,4.4349 64.8646,4.28125 64.4688,4.28125 C63.9167,4.28125 63.4323,4.45312 63.0156,4.79688 C62.5469,5.16146 62.3125,5.76042 62.3125,6.59375 L62.3125,10 L61.8281,10 L61.8281,3.98438 L62.3125,3.98438 L62.3125,5.10938 C62.4896,4.71354 62.7656,4.40104 63.1406,4.17188 C63.5052,3.95312 63.9583,3.84375 64.5,3.84375 C64.8542,3.84375 65.1927,3.95833 65.5156,4.1875 C65.7656,4.375 65.9792,4.74479 66.1562,5.29688 M76.5312,5.35938 L76.5312,1.64062 L77,1.64062 L77,10 L76.5312,10 L76.5312,8.64062 C76.3021,9.16146 76.0521,9.51562 75.7812,9.70312 C75.3854,10.0052 75.0052,10.1562 74.6406,10.1562 C73.9323,10.1562 73.3411,9.86719 72.8672,9.28906 C72.3932,8.71094 72.1562,7.94792 72.1562,7 C72.1562,6.05208 72.3932,5.28906 72.8672,4.71094 C73.3411,4.13281 73.9323,3.84375 74.6406,3.84375 C75.0052,3.84375 75.3854,3.98958 75.7812,4.28125 C76.0521,4.47917 76.3021,4.83854 76.5312,5.35938 M73.2969,4.90625 C72.8802,5.32292 72.6719,6.02083 72.6719,7 C72.6719,7.97917 72.8802,8.67708 73.2969,9.09375 C73.7135,9.51042 74.151,9.71875 74.6094,9.71875 C75.0573,9.71875 75.4896,9.51042 75.9062,9.09375 C76.3125,8.67708 76.5156,7.97917 76.5156,7 C76.5156,6.02083 76.3125,5.32292 75.9062,4.90625 C75.4896,4.48958 75.0573,4.28125 74.6094,4.28125 C74.151,4.28125 73.7135,4.48958 73.2969,4.90625 M83.8594,12.1719 L83.8594,12.5938 L78.1406,12.5938 L78.1406,12.1719 L83.8594,12.1719 M84.4531,3.98438 L84.9688,3.98438 L87,9.45312 L89.0469,3.98438 L89.5625,3.98438 L87.3281,10 L86.6875,10 L84.4531,3.98438 M96.1875,6.75 L96.1875,7.0625 L91.625,7.0625 C91.625,8.02083 91.8125,8.69792 92.1875,9.09375 C92.6042,9.52083 93.2188,9.73438 94.0312,9.73438 C94.25,9.73438 94.5365,9.6875 94.8906,9.59375 C95.2448,9.5 95.599,9.35938 95.9531,9.17188 L95.9531,9.6875 C95.599,9.84375 95.237,9.96094 94.8672,10.0391 C94.4974,10.1172 94.2031,10.1562 93.9844,10.1562 C93.0573,10.1562 92.3594,9.90625 91.8906,9.40625 C91.3802,8.875 91.125,8.09375 91.125,7.0625 C91.125,5.98958 91.3542,5.1875 91.8125,4.65625 C92.2917,4.11458 92.9583,3.84375 93.8125,3.84375 C94.5938,3.84375 95.1875,4.10417 95.5938,4.625 C95.9896,5.16667 96.1875,5.875 96.1875,6.75 M95.6875,6.64062 C95.6875,5.79688 95.4948,5.18229 95.1094,4.79688 C94.7969,4.45312 94.3646,4.28125 93.8125,4.28125 C93.2188,4.28125 92.7188,4.45833 92.3125,4.8125 C91.9375,5.14583 91.7135,5.75521 91.6406,6.64062 L95.6875,6.64062 M98.2656,1.64062 L98.75,1.64062 L98.75,10 L98.2656,10 L98.2656,1.64062"/>
</g>

<g fill="none" stroke="#000000" stroke-opacity="1" stroke-width="1" stroke-linecap="square" stroke-linejoin="bevel" transform="matrix(2,0,0,2,521.999,140)"
font-family="sans" font-size="11" font-weight="100" font-style="normal" 
>
</g>

<g fill="none" stroke="#000000" stroke-opacity="1" stroke-width="1" stroke-linecap="square" stroke-linejoin="bevel" transform="matrix(2,0,0,2,521.999,140)"
font-family="Sans Serif" font-size="9" font-weight="400" font-style="normal" 
>
</g>

<g fill="none" stroke="#000000" stroke-opacity="1" stroke-width="1" stroke-linecap="square" stroke-linejoin="bevel" transform="matrix(2,0,0,2,0.0012,180)"
font-family="Sans Serif" font-size="9" font-weight="400" font-style="normal" 
>
</g>

<g fill="#000000" fill-opacity="1" stroke="#000000" stroke-opacity="1" stroke-width="1" stroke-linecap="square" stroke-linejoin="round" transform="matrix(2,0,0,2,0.0012,180)"
font-family="Sans Serif" font-size="9" font-weight="400" font-style="normal" 
>
<path vector-effect="none" fill-rule="evenodd" d="M509.68,-10.201 L509.865,-6.61 L519.94,-10.731 L509.495,-13.792 L509.68,-10.201"/>
</g>

<g fill="none" stroke="#000000" stroke-opacity="1" stroke-width="1" stroke-linecap="square" stroke-linejoin="bevel" transform="matrix(2,0,0,2,0.0012,180)"
font-family="Sans Serif" font-size="9" font-weight="400" font-style="normal" 
>
</g>

<g fill="none" stroke="#000000" stroke-opacity="1" stroke-width="1" stroke-linecap="square" stroke-linejoin="bevel" transform="matrix(1,0,0,1,0,0)"
font-family="Sans Serif" font-size="9" font-weight="400" font-style="normal" 
>
</g>
</g>
</svg>
